<svg width="888" height="104" viewBox="0 0 888 104" fill="none" xmlns="http://www.w3.org/2000/svg">
<rect width="888" height="104" rx="52" fill="white"/>
<path d="M61.3668 68V36.7273H83.1722V42.8658H68.9254V49.2791H82.0575V55.4329H68.9254V61.8615H83.1722V68H61.3668ZM114.521 36.7273V68H108.108L95.663 49.951H95.4645V68H87.9059V36.7273H94.4109L106.718 54.7457H106.978V36.7273H114.521ZM139.797 46.9428C139.624 46.3015 139.369 45.7365 139.033 45.2479C138.697 44.7491 138.285 44.3266 137.796 43.9805C137.308 43.6344 136.748 43.3748 136.117 43.2017C135.486 43.0185 134.793 42.9268 134.04 42.9268C132.523 42.9268 131.21 43.2933 130.1 44.0263C129.001 44.7592 128.151 45.8281 127.55 47.233C126.95 48.6276 126.649 50.3226 126.649 52.3178C126.649 54.3233 126.94 56.0335 127.52 57.4485C128.1 58.8635 128.94 59.9426 130.039 60.6857C131.139 61.4289 132.472 61.8004 134.04 61.8004C135.425 61.8004 136.595 61.5765 137.552 61.1286C138.519 60.6705 139.252 60.024 139.751 59.1893C140.25 58.3545 140.499 57.3722 140.499 56.2422L141.904 56.4102H134.3V50.8977H147.783V55.0359C147.783 57.8353 147.187 60.2327 145.996 62.228C144.815 64.2232 143.187 65.7553 141.11 66.8242C139.043 67.8931 136.666 68.4276 133.979 68.4276C130.996 68.4276 128.375 67.7811 126.115 66.4883C123.855 65.1954 122.094 63.3529 120.832 60.9606C119.569 58.5581 118.938 55.7077 118.938 52.4094C118.938 49.8441 119.32 47.5689 120.083 45.5838C120.847 43.5885 121.911 41.8987 123.275 40.5142C124.649 39.1297 126.237 38.0812 128.039 37.3686C129.851 36.656 131.8 36.2997 133.887 36.2997C135.699 36.2997 137.384 36.5593 138.942 37.0785C140.509 37.5977 141.894 38.3306 143.095 39.2773C144.306 40.2241 145.289 41.349 146.042 42.652C146.795 43.955 147.264 45.3853 147.447 46.9428H139.797ZM159.797 36.7273V68H152.238V36.7273H159.797ZM191.157 36.7273V68H184.744L172.299 49.951H172.1V68H164.542V36.7273H171.047L183.354 54.7457H183.614V36.7273H191.157ZM195.91 68V36.7273H217.715V42.8658H203.468V49.2791H216.6V55.4329H203.468V61.8615H217.715V68H195.91ZM222.449 68V36.7273H244.254V42.8658H230.007V49.2791H243.14V55.4329H230.007V61.8615H244.254V68H222.449ZM248.988 68V36.7273H261.906C264.248 36.7273 266.268 37.1497 267.968 37.9947C269.679 38.8294 270.997 40.0307 271.923 41.5984C272.85 43.1559 273.313 45.0035 273.313 47.1413C273.313 49.3097 272.839 51.1522 271.893 52.669C270.946 54.1757 269.602 55.326 267.862 56.12C266.121 56.9039 264.059 57.2958 261.677 57.2958H253.508V51.3406H260.272C261.413 51.3406 262.364 51.1929 263.128 50.8977C263.902 50.5923 264.487 50.1342 264.884 49.5234C265.281 48.9025 265.479 48.1084 265.479 47.1413C265.479 46.1742 265.281 45.3751 264.884 44.744C264.487 44.1026 263.902 43.6242 263.128 43.3086C262.354 42.9828 261.402 42.82 260.272 42.82H256.547V68H248.988ZM266.594 53.7074L274.382 68H266.136L258.501 53.7074H266.594ZM285.017 36.7273V68H277.459V36.7273H285.017ZM316.378 36.7273V68H309.964L297.519 49.951H297.321V68H289.762V36.7273H296.267L308.575 54.7457H308.834V36.7273H316.378ZM341.653 46.9428C341.48 46.3015 341.226 45.7365 340.89 45.2479C340.554 44.7491 340.142 44.3266 339.653 43.9805C339.164 43.6344 338.604 43.3748 337.973 43.2017C337.342 43.0185 336.65 42.9268 335.896 42.9268C334.38 42.9268 333.066 43.2933 331.957 44.0263C330.857 44.7592 330.007 45.8281 329.407 47.233C328.806 48.6276 328.506 50.3226 328.506 52.3178C328.506 54.3233 328.796 56.0335 329.376 57.4485C329.956 58.8635 330.796 59.9426 331.896 60.6857C332.995 61.4289 334.329 61.8004 335.896 61.8004C337.281 61.8004 338.452 61.5765 339.409 61.1286C340.376 60.6705 341.109 60.024 341.607 59.1893C342.106 58.3545 342.356 57.3722 342.356 56.2422L343.76 56.4102H336.156V50.8977H349.639V55.0359C349.639 57.8353 349.044 60.2327 347.853 62.228C346.672 64.2232 345.043 65.7553 342.966 66.8242C340.9 67.8931 338.523 68.4276 335.835 68.4276C332.853 68.4276 330.231 67.7811 327.971 66.4883C325.711 65.1954 323.95 63.3529 322.688 60.9606C321.426 58.5581 320.795 55.7077 320.795 52.4094C320.795 49.8441 321.176 47.5689 321.94 45.5838C322.703 43.5885 323.767 41.8987 325.131 40.5142C326.506 39.1297 328.094 38.0812 329.895 37.3686C331.707 36.656 333.657 36.2997 335.744 36.2997C337.556 36.2997 339.241 36.5593 340.798 37.0785C342.366 37.5977 343.75 38.3306 344.952 39.2773C346.163 40.2241 347.145 41.349 347.899 42.652C348.652 43.955 349.12 45.3853 349.303 46.9428H341.653ZM363.333 68V36.7273H376.251C378.592 36.7273 380.613 37.1854 382.313 38.1016C384.023 39.0076 385.342 40.275 386.268 41.9038C387.194 43.5224 387.658 45.4057 387.658 47.5536C387.658 49.7118 387.184 51.6001 386.237 53.2188C385.301 54.8272 383.962 56.0742 382.222 56.9599C380.481 57.8455 378.414 58.2884 376.022 58.2884H368.051V52.3331H374.617C375.757 52.3331 376.709 52.1346 377.473 51.7376C378.246 51.3406 378.832 50.7857 379.229 50.0732C379.626 49.3504 379.824 48.5105 379.824 47.5536C379.824 46.5865 379.626 45.7518 379.229 45.0494C378.832 44.3368 378.246 43.7871 377.473 43.4002C376.699 43.0134 375.747 42.82 374.617 42.82H370.891V68H363.333ZM391.383 68V36.7273H398.942V49.2791H411.265V36.7273H418.808V68H411.265V55.4329H398.942V68H391.383ZM421.992 36.7273H430.436L437.048 49.8136H437.323L443.935 36.7273H452.379L440.942 57.5554V68H433.429V57.5554L421.992 36.7273ZM472.451 46.103C472.349 44.9832 471.896 44.1128 471.092 43.4918C470.298 42.8607 469.163 42.5451 467.687 42.5451C466.71 42.5451 465.895 42.6723 465.244 42.9268C464.592 43.1813 464.104 43.5326 463.778 43.9805C463.452 44.4182 463.284 44.9221 463.274 45.4922C463.254 45.9605 463.345 46.3727 463.549 46.729C463.763 47.0853 464.068 47.4009 464.465 47.6758C464.872 47.9405 465.361 48.1746 465.931 48.3782C466.501 48.5818 467.142 48.7599 467.855 48.9126L470.543 49.5234C472.09 49.8594 473.454 50.3073 474.635 50.8672C475.826 51.4271 476.824 52.0939 477.628 52.8675C478.442 53.6412 479.058 54.532 479.475 55.5398C479.893 56.5476 480.107 57.6776 480.117 58.9297C480.107 60.9046 479.608 62.5996 478.62 64.0146C477.633 65.4296 476.213 66.5137 474.36 67.267C472.517 68.0204 470.293 68.397 467.687 68.397C465.071 68.397 462.791 68.0051 460.846 67.2212C458.902 66.4374 457.39 65.2463 456.311 63.6481C455.232 62.0498 454.677 60.0291 454.647 57.5859H461.884C461.946 58.5938 462.215 59.4336 462.694 60.1055C463.172 60.7773 463.829 61.2863 464.664 61.6325C465.509 61.9786 466.486 62.1516 467.595 62.1516C468.613 62.1516 469.479 62.0142 470.191 61.7393C470.914 61.4645 471.469 61.0827 471.856 60.5941C472.243 60.1055 472.441 59.5456 472.451 58.9144C472.441 58.324 472.258 57.8201 471.902 57.4027C471.545 56.9751 470.996 56.6087 470.252 56.3033C469.519 55.9877 468.583 55.6976 467.443 55.4329L464.175 54.6694C461.467 54.0484 459.334 53.0457 457.777 51.6612C456.219 50.2666 455.446 48.3833 455.456 46.0114C455.446 44.0772 455.965 42.3822 457.013 40.9265C458.062 39.4708 459.513 38.3357 461.365 37.5213C463.218 36.7069 465.33 36.2997 467.702 36.2997C470.125 36.2997 472.227 36.712 474.009 37.5366C475.8 38.351 477.19 39.4962 478.177 40.9723C479.165 42.4484 479.669 44.1586 479.689 46.103H472.451ZM491.493 36.7273V68H483.934V36.7273H491.493ZM524.625 48.0575H516.99C516.888 47.2737 516.679 46.5662 516.364 45.935C516.048 45.3039 515.631 44.7643 515.112 44.3164C514.592 43.8685 513.976 43.5275 513.264 43.2933C512.561 43.049 511.783 42.9268 510.928 42.9268C509.411 42.9268 508.103 43.2984 507.003 44.0415C505.914 44.7847 505.074 45.8587 504.484 47.2635C503.903 48.6683 503.613 50.3684 503.613 52.3636C503.613 54.4403 503.908 56.1811 504.499 57.5859C505.1 58.9806 505.939 60.0342 507.018 60.7468C508.108 61.4492 509.395 61.8004 510.882 61.8004C511.717 61.8004 512.475 61.6935 513.157 61.4798C513.849 61.266 514.455 60.9555 514.974 60.5483C515.503 60.1309 515.936 59.627 516.272 59.0366C516.618 58.436 516.857 57.759 516.99 57.0057L524.625 57.0515C524.492 58.436 524.09 59.8001 523.418 61.1438C522.757 62.4876 521.846 63.7143 520.685 64.8239C519.525 65.9233 518.109 66.7988 516.44 67.4503C514.781 68.1018 512.877 68.4276 510.729 68.4276C507.899 68.4276 505.364 67.8066 503.125 66.5646C500.895 65.3125 499.134 63.4903 497.841 61.098C496.548 58.7057 495.902 55.7943 495.902 52.3636C495.902 48.9228 496.559 46.0063 497.872 43.614C499.185 41.2217 500.961 39.4046 503.201 38.1626C505.441 36.9207 507.95 36.2997 510.729 36.2997C512.623 36.2997 514.373 36.5644 515.982 37.0938C517.59 37.6129 519.005 38.3764 520.227 39.3842C521.449 40.3819 522.441 41.6085 523.205 43.0643C523.968 44.52 524.441 46.1844 524.625 48.0575ZM545.854 46.103C545.752 44.9832 545.299 44.1128 544.495 43.4918C543.701 42.8607 542.565 42.5451 541.089 42.5451C540.112 42.5451 539.298 42.6723 538.646 42.9268C537.995 43.1813 537.506 43.5326 537.18 43.9805C536.855 44.4182 536.687 44.9221 536.676 45.4922C536.656 45.9605 536.748 46.3727 536.951 46.729C537.165 47.0853 537.47 47.4009 537.867 47.6758C538.275 47.9405 538.763 48.1746 539.333 48.3782C539.903 48.5818 540.545 48.7599 541.257 48.9126L543.945 49.5234C545.492 49.8594 546.856 50.3073 548.037 50.8672C549.228 51.4271 550.226 52.0939 551.03 52.8675C551.844 53.6412 552.46 54.532 552.878 55.5398C553.295 56.5476 553.509 57.6776 553.519 58.9297C553.509 60.9046 553.01 62.5996 552.023 64.0146C551.035 65.4296 549.615 66.5137 547.762 67.267C545.92 68.0204 543.695 68.397 541.089 68.397C538.473 68.397 536.193 68.0051 534.248 67.2212C532.304 66.4374 530.792 65.2463 529.713 63.6481C528.634 62.0498 528.079 60.0291 528.049 57.5859H535.287C535.348 58.5938 535.618 59.4336 536.096 60.1055C536.575 60.7773 537.231 61.2863 538.066 61.6325C538.911 61.9786 539.888 62.1516 540.998 62.1516C542.016 62.1516 542.881 62.0142 543.594 61.7393C544.316 61.4645 544.871 61.0827 545.258 60.5941C545.645 60.1055 545.843 59.5456 545.854 58.9144C545.843 58.324 545.66 57.8201 545.304 57.4027C544.948 56.9751 544.398 56.6087 543.655 56.3033C542.922 55.9877 541.985 55.6976 540.845 55.4329L537.577 54.6694C534.869 54.0484 532.737 53.0457 531.179 51.6612C529.622 50.2666 528.848 48.3833 528.858 46.0114C528.848 44.0772 529.367 42.3822 530.416 40.9265C531.464 39.4708 532.915 38.3357 534.768 37.5213C536.62 36.7069 538.733 36.2997 541.105 36.2997C543.527 36.2997 545.63 36.712 547.411 37.5366C549.203 38.351 550.592 39.4962 551.58 40.9723C552.567 42.4484 553.071 44.1586 553.092 46.103H545.854ZM594.962 48.0575H587.327C587.225 47.2737 587.016 46.5662 586.701 45.935C586.385 45.3039 585.968 44.7643 585.448 44.3164C584.929 43.8685 584.313 43.5275 583.601 43.2933C582.898 43.049 582.12 42.9268 581.264 42.9268C579.748 42.9268 578.44 43.2984 577.34 44.0415C576.251 44.7847 575.411 45.8587 574.821 47.2635C574.24 48.6683 573.95 50.3684 573.95 52.3636C573.95 54.4403 574.245 56.1811 574.836 57.5859C575.436 58.9806 576.276 60.0342 577.355 60.7468C578.445 61.4492 579.732 61.8004 581.219 61.8004C582.053 61.8004 582.812 61.6935 583.494 61.4798C584.186 61.266 584.792 60.9555 585.311 60.5483C585.84 60.1309 586.273 59.627 586.609 59.0366C586.955 58.436 587.194 57.759 587.327 57.0057L594.962 57.0515C594.829 58.436 594.427 59.8001 593.755 61.1438C593.094 62.4876 592.182 63.7143 591.022 64.8239C589.861 65.9233 588.446 66.7988 586.777 67.4503C585.118 68.1018 583.214 68.4276 581.066 68.4276C578.236 68.4276 575.701 67.8066 573.462 66.5646C571.232 65.3125 569.471 63.4903 568.178 61.098C566.885 58.7057 566.239 55.7943 566.239 52.3636C566.239 48.9228 566.896 46.0063 568.209 43.614C569.522 41.2217 571.298 39.4046 573.538 38.1626C575.777 36.9207 578.287 36.2997 581.066 36.2997C582.959 36.2997 584.71 36.5644 586.319 37.0938C587.927 37.6129 589.342 38.3764 590.564 39.3842C591.785 40.3819 592.778 41.6085 593.541 43.0643C594.305 44.52 594.778 46.1844 594.962 48.0575ZM599.287 68V36.7273H606.845V49.2791H619.168V36.7273H626.711V68H619.168V55.4329H606.845V68H599.287ZM638.217 68H630.094L640.645 36.7273H650.708L661.26 68H653.136L645.791 44.6065H645.547L638.217 68ZM637.133 55.6925H654.113V61.4339H637.133V55.6925ZM664.627 68V36.7273H672.185V61.8615H685.195V68H664.627ZM689.108 68V36.7273H696.667V61.8615H709.677V68H689.108ZM713.589 68V36.7273H735.395V42.8658H721.148V49.2791H734.28V55.4329H721.148V61.8615H735.395V68H713.589ZM766.744 36.7273V68H760.331L747.886 49.951H747.687V68H740.129V36.7273H746.634L758.941 54.7457H759.201V36.7273H766.744ZM792.019 46.9428C791.846 46.3015 791.592 45.7365 791.256 45.2479C790.92 44.7491 790.508 44.3266 790.019 43.9805C789.53 43.6344 788.971 43.3748 788.339 43.2017C787.708 43.0185 787.016 42.9268 786.263 42.9268C784.746 42.9268 783.433 43.2933 782.323 44.0263C781.224 44.7592 780.374 45.8281 779.773 47.233C779.172 48.6276 778.872 50.3226 778.872 52.3178C778.872 54.3233 779.162 56.0335 779.742 57.4485C780.323 58.8635 781.163 59.9426 782.262 60.6857C783.361 61.4289 784.695 61.8004 786.263 61.8004C787.647 61.8004 788.818 61.5765 789.775 61.1286C790.742 60.6705 791.475 60.024 791.974 59.1893C792.472 58.3545 792.722 57.3722 792.722 56.2422L794.127 56.4102H786.522V50.8977H800.006V55.0359C800.006 57.8353 799.41 60.2327 798.219 62.228C797.038 64.2232 795.409 65.7553 793.333 66.8242C791.266 67.8931 788.889 68.4276 786.202 68.4276C783.219 68.4276 780.598 67.7811 778.338 66.4883C776.078 65.1954 774.317 63.3529 773.054 60.9606C771.792 58.5581 771.161 55.7077 771.161 52.4094C771.161 49.8441 771.543 47.5689 772.306 45.5838C773.07 43.5885 774.133 41.8987 775.497 40.5142C776.872 39.1297 778.46 38.0812 780.262 37.3686C782.074 36.656 784.023 36.2997 786.11 36.2997C787.922 36.2997 789.607 36.5593 791.164 37.0785C792.732 37.5977 794.117 38.3306 795.318 39.2773C796.529 40.2241 797.512 41.349 798.265 42.652C799.018 43.955 799.486 45.3853 799.67 46.9428H792.019ZM804.461 68V36.7273H826.266V42.8658H812.019V49.2791H825.151V55.4329H812.019V61.8615H826.266V68H804.461Z" fill="#39145F"/>
</svg>
