<svg width="1272" height="400" viewBox="0 0 1272 400" fill="none" xmlns="http://www.w3.org/2000/svg">
<path d="M672.825 339.011V304.102H694.712V308.636H678.093V319.272H693.57V323.789H678.093V334.477H694.916V339.011H672.825ZM706.435 323.465V339.011H701.338V312.829H706.23V317.09H706.554C707.156 315.704 708.1 314.59 709.384 313.749C710.679 312.908 712.31 312.488 714.276 312.488C716.06 312.488 717.622 312.863 718.963 313.613C720.304 314.352 721.344 315.454 722.083 316.92C722.821 318.386 723.191 320.198 723.191 322.357V339.011H718.094V322.971C718.094 321.073 717.6 319.59 716.611 318.522C715.622 317.443 714.264 316.903 712.537 316.903C711.355 316.903 710.304 317.158 709.384 317.67C708.475 318.181 707.753 318.931 707.219 319.92C706.696 320.897 706.435 322.079 706.435 323.465ZM741.003 349.374C738.923 349.374 737.134 349.102 735.634 348.556C734.145 348.011 732.929 347.289 731.986 346.391C731.043 345.494 730.338 344.511 729.872 343.443L734.253 341.636C734.56 342.136 734.969 342.664 735.48 343.221C736.003 343.789 736.708 344.272 737.594 344.67C738.492 345.068 739.645 345.266 741.054 345.266C742.986 345.266 744.583 344.795 745.844 343.852C747.105 342.92 747.736 341.431 747.736 339.386V334.238H747.412C747.105 334.795 746.662 335.414 746.083 336.096C745.514 336.778 744.73 337.369 743.73 337.869C742.73 338.369 741.429 338.619 739.827 338.619C737.759 338.619 735.895 338.136 734.236 337.17C732.588 336.193 731.281 334.755 730.316 332.857C729.361 330.948 728.884 328.602 728.884 325.818C728.884 323.033 729.355 320.647 730.298 318.658C731.253 316.67 732.56 315.147 734.219 314.09C735.878 313.022 737.759 312.488 739.861 312.488C741.486 312.488 742.798 312.761 743.798 313.306C744.798 313.84 745.577 314.465 746.134 315.181C746.702 315.897 747.139 316.528 747.446 317.073H747.821V312.829H752.816V339.59C752.816 341.84 752.293 343.687 751.247 345.13C750.202 346.573 748.787 347.641 747.003 348.335C745.23 349.028 743.23 349.374 741.003 349.374ZM740.952 334.391C742.418 334.391 743.656 334.051 744.668 333.369C745.691 332.676 746.463 331.687 746.986 330.403C747.52 329.107 747.787 327.556 747.787 325.749C747.787 323.988 747.526 322.437 747.003 321.096C746.48 319.755 745.713 318.71 744.702 317.96C743.691 317.198 742.441 316.818 740.952 316.818C739.418 316.818 738.139 317.215 737.117 318.011C736.094 318.795 735.321 319.863 734.798 321.215C734.287 322.568 734.031 324.079 734.031 325.749C734.031 327.465 734.293 328.971 734.816 330.266C735.338 331.562 736.111 332.573 737.134 333.301C738.168 334.028 739.441 334.391 740.952 334.391ZM759.651 339.011V312.829H764.747V339.011H759.651ZM762.225 308.789C761.338 308.789 760.577 308.494 759.941 307.903C759.316 307.301 759.003 306.585 759.003 305.755C759.003 304.914 759.316 304.198 759.941 303.607C760.577 303.005 761.338 302.704 762.225 302.704C763.111 302.704 763.867 303.005 764.492 303.607C765.128 304.198 765.446 304.914 765.446 305.755C765.446 306.585 765.128 307.301 764.492 307.903C763.867 308.494 763.111 308.789 762.225 308.789ZM776.7 323.465V339.011H771.604V312.829H776.496V317.09H776.82C777.422 315.704 778.365 314.59 779.649 313.749C780.945 312.908 782.575 312.488 784.541 312.488C786.325 312.488 787.888 312.863 789.229 313.613C790.57 314.352 791.61 315.454 792.348 316.92C793.087 318.386 793.456 320.198 793.456 322.357V339.011H788.36V322.971C788.36 321.073 787.865 319.59 786.877 318.522C785.888 317.443 784.53 316.903 782.803 316.903C781.621 316.903 780.57 317.158 779.649 317.67C778.74 318.181 778.019 318.931 777.485 319.92C776.962 320.897 776.7 322.079 776.7 323.465ZM811.575 339.539C808.996 339.539 806.774 338.988 804.911 337.886C803.058 336.772 801.627 335.21 800.615 333.198C799.615 331.176 799.115 328.806 799.115 326.09C799.115 323.408 799.615 321.045 800.615 318.999C801.627 316.954 803.036 315.357 804.843 314.21C806.661 313.062 808.786 312.488 811.218 312.488C812.695 312.488 814.127 312.732 815.513 313.221C816.899 313.71 818.144 314.477 819.246 315.522C820.348 316.568 821.218 317.926 821.854 319.596C822.49 321.255 822.808 323.272 822.808 325.647V327.454H801.996V323.636H817.814C817.814 322.295 817.541 321.107 816.996 320.073C816.45 319.028 815.683 318.204 814.695 317.602C813.718 316.999 812.57 316.698 811.252 316.698C809.82 316.698 808.57 317.051 807.502 317.755C806.445 318.448 805.627 319.357 805.047 320.482C804.479 321.596 804.195 322.806 804.195 324.113V327.096C804.195 328.846 804.502 330.335 805.115 331.562C805.74 332.789 806.61 333.727 807.723 334.374C808.837 335.011 810.138 335.329 811.627 335.329C812.593 335.329 813.473 335.193 814.269 334.92C815.064 334.636 815.752 334.215 816.331 333.658C816.911 333.102 817.354 332.414 817.661 331.596L822.485 332.465C822.098 333.886 821.405 335.13 820.405 336.198C819.416 337.255 818.172 338.079 816.672 338.67C815.183 339.249 813.485 339.539 811.575 339.539ZM839.747 339.539C837.168 339.539 834.946 338.988 833.083 337.886C831.23 336.772 829.798 335.21 828.787 333.198C827.787 331.176 827.287 328.806 827.287 326.09C827.287 323.408 827.787 321.045 828.787 318.999C829.798 316.954 831.208 315.357 833.014 314.21C834.833 313.062 836.958 312.488 839.389 312.488C840.867 312.488 842.298 312.732 843.685 313.221C845.071 313.71 846.316 314.477 847.418 315.522C848.52 316.568 849.389 317.926 850.026 319.596C850.662 321.255 850.98 323.272 850.98 325.647V327.454H830.168V323.636H845.986C845.986 322.295 845.713 321.107 845.168 320.073C844.622 319.028 843.855 318.204 842.867 317.602C841.889 316.999 840.742 316.698 839.423 316.698C837.992 316.698 836.742 317.051 835.673 317.755C834.617 318.448 833.798 319.357 833.219 320.482C832.651 321.596 832.367 322.806 832.367 324.113V327.096C832.367 328.846 832.673 330.335 833.287 331.562C833.912 332.789 834.781 333.727 835.895 334.374C837.009 335.011 838.31 335.329 839.798 335.329C840.764 335.329 841.645 335.193 842.441 334.92C843.236 334.636 843.923 334.215 844.503 333.658C845.083 333.102 845.526 332.414 845.833 331.596L850.656 332.465C850.27 333.886 849.577 335.13 848.577 336.198C847.588 337.255 846.344 338.079 844.844 338.67C843.355 339.249 841.656 339.539 839.747 339.539ZM856.635 339.011V312.829H861.561V316.988H861.834C862.311 315.579 863.152 314.471 864.357 313.664C865.573 312.846 866.948 312.437 868.482 312.437C868.8 312.437 869.175 312.448 869.607 312.471C870.05 312.494 870.396 312.522 870.646 312.556V317.431C870.442 317.374 870.078 317.312 869.556 317.244C869.033 317.164 868.51 317.124 867.987 317.124C866.783 317.124 865.709 317.38 864.766 317.891C863.834 318.391 863.095 319.09 862.55 319.988C862.004 320.874 861.732 321.886 861.732 323.022V339.011H856.635ZM875.057 339.011V312.829H880.154V339.011H875.057ZM877.631 308.789C876.744 308.789 875.983 308.494 875.347 307.903C874.722 307.301 874.409 306.585 874.409 305.755C874.409 304.914 874.722 304.198 875.347 303.607C875.983 303.005 876.744 302.704 877.631 302.704C878.517 302.704 879.273 303.005 879.898 303.607C880.534 304.198 880.852 304.914 880.852 305.755C880.852 306.585 880.534 307.301 879.898 307.903C879.273 308.494 878.517 308.789 877.631 308.789ZM892.107 323.465V339.011H887.01V312.829H891.902V317.09H892.226C892.828 315.704 893.771 314.59 895.056 313.749C896.351 312.908 897.982 312.488 899.948 312.488C901.732 312.488 903.294 312.863 904.635 313.613C905.976 314.352 907.016 315.454 907.754 316.92C908.493 318.386 908.862 320.198 908.862 322.357V339.011H903.766V322.971C903.766 321.073 903.271 319.59 902.283 318.522C901.294 317.443 899.936 316.903 898.209 316.903C897.027 316.903 895.976 317.158 895.056 317.67C894.146 318.181 893.425 318.931 892.891 319.92C892.368 320.897 892.107 322.079 892.107 323.465ZM926.675 349.374C924.595 349.374 922.806 349.102 921.306 348.556C919.817 348.011 918.601 347.289 917.658 346.391C916.715 345.494 916.01 344.511 915.544 343.443L919.925 341.636C920.232 342.136 920.641 342.664 921.152 343.221C921.675 343.789 922.379 344.272 923.266 344.67C924.164 345.068 925.317 345.266 926.726 345.266C928.658 345.266 930.254 344.795 931.516 343.852C932.777 342.92 933.408 341.431 933.408 339.386V334.238H933.084C932.777 334.795 932.334 335.414 931.754 336.096C931.186 336.778 930.402 337.369 929.402 337.869C928.402 338.369 927.101 338.619 925.499 338.619C923.431 338.619 921.567 338.136 919.908 337.17C918.26 336.193 916.953 334.755 915.987 332.857C915.033 330.948 914.556 328.602 914.556 325.818C914.556 323.033 915.027 320.647 915.97 318.658C916.925 316.67 918.232 315.147 919.891 314.09C921.55 313.022 923.431 312.488 925.533 312.488C927.158 312.488 928.47 312.761 929.47 313.306C930.47 313.84 931.249 314.465 931.806 315.181C932.374 315.897 932.811 316.528 933.118 317.073H933.493V312.829H938.487V339.59C938.487 341.84 937.965 343.687 936.919 345.13C935.874 346.573 934.459 347.641 932.675 348.335C930.902 349.028 928.902 349.374 926.675 349.374ZM926.624 334.391C928.09 334.391 929.328 334.051 930.34 333.369C931.362 332.676 932.135 331.687 932.658 330.403C933.192 329.107 933.459 327.556 933.459 325.749C933.459 323.988 933.198 322.437 932.675 321.096C932.152 319.755 931.385 318.71 930.374 317.96C929.362 317.198 928.112 316.818 926.624 316.818C925.09 316.818 923.811 317.215 922.789 318.011C921.766 318.795 920.993 319.863 920.47 321.215C919.959 322.568 919.703 324.079 919.703 325.749C919.703 327.465 919.965 328.971 920.487 330.266C921.01 331.562 921.783 332.573 922.806 333.301C923.84 334.028 925.112 334.391 926.624 334.391ZM958.435 339.011V304.102H970.878C973.594 304.102 975.844 304.596 977.628 305.585C979.412 306.573 980.747 307.926 981.634 309.641C982.52 311.346 982.963 313.266 982.963 315.403C982.963 317.551 982.514 319.482 981.617 321.198C980.73 322.903 979.389 324.255 977.594 325.255C975.81 326.244 973.566 326.738 970.861 326.738H962.304V322.272H970.384C972.1 322.272 973.492 321.977 974.56 321.386C975.628 320.783 976.412 319.965 976.912 318.931C977.412 317.897 977.662 316.721 977.662 315.403C977.662 314.085 977.412 312.914 976.912 311.891C976.412 310.869 975.622 310.068 974.543 309.488C973.475 308.908 972.066 308.619 970.316 308.619H963.702V339.011H958.435ZM993.825 323.465V339.011H988.729V304.102H993.757V317.09H994.081C994.695 315.681 995.632 314.562 996.894 313.732C998.155 312.903 999.803 312.488 1001.84 312.488C1003.63 312.488 1005.2 312.857 1006.54 313.596C1007.89 314.335 1008.94 315.437 1009.68 316.903C1010.43 318.357 1010.8 320.176 1010.8 322.357V339.011H1005.71V322.971C1005.71 321.051 1005.21 319.562 1004.22 318.505C1003.23 317.437 1001.86 316.903 1000.1 316.903C998.894 316.903 997.814 317.158 996.86 317.67C995.916 318.181 995.172 318.931 994.627 319.92C994.093 320.897 993.825 322.079 993.825 323.465ZM1019.89 348.829C1019.13 348.829 1018.43 348.766 1017.81 348.641C1017.18 348.528 1016.72 348.403 1016.41 348.266L1017.64 344.09C1018.57 344.34 1019.4 344.448 1020.13 344.414C1020.85 344.38 1021.5 344.107 1022.05 343.596C1022.62 343.085 1023.12 342.249 1023.55 341.09L1024.18 339.352L1014.6 312.829H1020.06L1026.69 333.147H1026.96L1033.59 312.829H1039.06L1028.27 342.505C1027.77 343.869 1027.14 345.022 1026.37 345.965C1025.59 346.92 1024.67 347.636 1023.6 348.113C1022.54 348.59 1021.3 348.829 1019.89 348.829ZM1063.47 319.221L1058.85 320.039C1058.66 319.448 1058.35 318.886 1057.93 318.352C1057.52 317.818 1056.97 317.38 1056.26 317.039C1055.56 316.698 1054.68 316.528 1053.62 316.528C1052.18 316.528 1050.97 316.852 1050.01 317.499C1049.04 318.136 1048.56 318.96 1048.56 319.971C1048.56 320.846 1048.88 321.551 1049.53 322.085C1050.18 322.619 1051.22 323.056 1052.67 323.397L1056.83 324.352C1059.23 324.908 1061.03 325.766 1062.21 326.926C1063.39 328.085 1063.98 329.59 1063.98 331.443C1063.98 333.011 1063.53 334.408 1062.62 335.636C1061.72 336.852 1060.47 337.806 1058.85 338.499C1057.25 339.193 1055.39 339.539 1053.28 339.539C1050.35 339.539 1047.96 338.914 1046.1 337.664C1044.25 336.403 1043.12 334.613 1042.69 332.295L1047.62 331.545C1047.93 332.829 1048.56 333.801 1049.51 334.46C1050.47 335.107 1051.71 335.431 1053.25 335.431C1054.92 335.431 1056.25 335.085 1057.25 334.391C1058.25 333.687 1058.75 332.829 1058.75 331.818C1058.75 330.999 1058.44 330.312 1057.83 329.755C1057.23 329.198 1056.3 328.778 1055.05 328.494L1050.62 327.522C1048.18 326.965 1046.37 326.079 1045.2 324.863C1044.04 323.647 1043.46 322.107 1043.46 320.244C1043.46 318.698 1043.89 317.346 1044.76 316.187C1045.62 315.028 1046.81 314.124 1048.34 313.477C1049.86 312.818 1051.6 312.488 1053.57 312.488C1056.4 312.488 1058.63 313.102 1060.25 314.329C1061.88 315.545 1062.95 317.176 1063.47 319.221ZM1069.59 339.011V312.829H1074.68V339.011H1069.59ZM1072.16 308.789C1071.28 308.789 1070.51 308.494 1069.88 307.903C1069.25 307.301 1068.94 306.585 1068.94 305.755C1068.94 304.914 1069.25 304.198 1069.88 303.607C1070.51 303.005 1071.28 302.704 1072.16 302.704C1073.05 302.704 1073.8 303.005 1074.43 303.607C1075.07 304.198 1075.38 304.914 1075.38 305.755C1075.38 306.585 1075.07 307.301 1074.43 307.903C1073.8 308.494 1073.05 308.789 1072.16 308.789ZM1092.57 339.539C1090.04 339.539 1087.85 338.965 1086.02 337.818C1084.21 336.658 1082.81 335.062 1081.83 333.028C1080.85 330.994 1080.37 328.664 1080.37 326.039C1080.37 323.38 1080.87 321.033 1081.87 318.999C1082.87 316.954 1084.27 315.357 1086.09 314.21C1087.91 313.062 1090.05 312.488 1092.52 312.488C1094.51 312.488 1096.28 312.857 1097.84 313.596C1099.39 314.323 1100.65 315.346 1101.6 316.664C1102.57 317.982 1103.14 319.522 1103.33 321.283H1098.37C1098.09 320.056 1097.47 318.999 1096.49 318.113C1095.52 317.227 1094.23 316.783 1092.6 316.783C1091.18 316.783 1089.94 317.158 1088.87 317.908C1087.81 318.647 1086.99 319.704 1086.4 321.079C1085.81 322.443 1085.51 324.056 1085.51 325.92C1085.51 327.829 1085.8 329.477 1086.38 330.863C1086.96 332.249 1087.78 333.323 1088.84 334.085C1089.91 334.846 1091.16 335.227 1092.6 335.227C1093.57 335.227 1094.44 335.051 1095.23 334.698C1096.02 334.335 1096.69 333.818 1097.22 333.147C1097.77 332.477 1098.15 331.67 1098.37 330.727H1103.33C1103.14 332.42 1102.59 333.931 1101.67 335.261C1100.75 336.59 1099.52 337.636 1097.97 338.397C1096.44 339.158 1094.64 339.539 1092.57 339.539ZM1128.4 319.221L1123.78 320.039C1123.58 319.448 1123.28 318.886 1122.86 318.352C1122.45 317.818 1121.89 317.38 1121.18 317.039C1120.48 316.698 1119.6 316.528 1118.54 316.528C1117.1 316.528 1115.9 316.852 1114.93 317.499C1113.96 318.136 1113.48 318.96 1113.48 319.971C1113.48 320.846 1113.8 321.551 1114.45 322.085C1115.1 322.619 1116.15 323.056 1117.59 323.397L1121.75 324.352C1124.16 324.908 1125.95 325.766 1127.13 326.926C1128.32 328.085 1128.91 329.59 1128.91 331.443C1128.91 333.011 1128.45 334.408 1127.54 335.636C1126.65 336.852 1125.39 337.806 1123.78 338.499C1122.17 339.193 1120.32 339.539 1118.2 339.539C1115.27 339.539 1112.88 338.914 1111.03 337.664C1109.17 336.403 1108.04 334.613 1107.62 332.295L1112.54 331.545C1112.85 332.829 1113.48 333.801 1114.43 334.46C1115.39 335.107 1116.63 335.431 1118.17 335.431C1119.84 335.431 1121.17 335.085 1122.17 334.391C1123.17 333.687 1123.67 332.829 1123.67 331.818C1123.67 330.999 1123.37 330.312 1122.75 329.755C1122.15 329.198 1121.22 328.778 1119.97 328.494L1115.54 327.522C1113.1 326.965 1111.29 326.079 1110.12 324.863C1108.96 323.647 1108.38 322.107 1108.38 320.244C1108.38 318.698 1108.82 317.346 1109.68 316.187C1110.54 315.028 1111.74 314.124 1113.26 313.477C1114.78 312.818 1116.53 312.488 1118.49 312.488C1121.32 312.488 1123.55 313.102 1125.17 314.329C1126.8 315.545 1127.87 317.176 1128.4 319.221ZM1154.46 339.011L1144.78 304.102H1150.32L1157.12 331.136H1157.44L1164.51 304.102H1170L1177.08 331.153H1177.4L1184.18 304.102H1189.74L1180.04 339.011H1174.74L1167.4 312.863H1167.12L1159.78 339.011H1154.46ZM1202.84 339.539C1200.26 339.539 1198.04 338.988 1196.18 337.886C1194.32 336.772 1192.89 335.21 1191.88 333.198C1190.88 331.176 1190.38 328.806 1190.38 326.09C1190.38 323.408 1190.88 321.045 1191.88 318.999C1192.89 316.954 1194.3 315.357 1196.11 314.21C1197.93 313.062 1200.05 312.488 1202.48 312.488C1203.96 312.488 1205.39 312.732 1206.78 313.221C1208.16 313.71 1209.41 314.477 1210.51 315.522C1211.61 316.568 1212.48 317.926 1213.12 319.596C1213.76 321.255 1214.07 323.272 1214.07 325.647V327.454H1193.26V323.636H1209.08C1209.08 322.295 1208.81 321.107 1208.26 320.073C1207.72 319.028 1206.95 318.204 1205.96 317.602C1204.98 316.999 1203.84 316.698 1202.52 316.698C1201.09 316.698 1199.84 317.051 1198.77 317.755C1197.71 318.448 1196.89 319.357 1196.31 320.482C1195.74 321.596 1195.46 322.806 1195.46 324.113V327.096C1195.46 328.846 1195.77 330.335 1196.38 331.562C1197.01 332.789 1197.88 333.727 1198.99 334.374C1200.1 335.011 1201.4 335.329 1202.89 335.329C1203.86 335.329 1204.74 335.193 1205.53 334.92C1206.33 334.636 1207.02 334.215 1207.6 333.658C1208.18 333.102 1208.62 332.414 1208.93 331.596L1213.75 332.465C1213.36 333.886 1212.67 335.13 1211.67 336.198C1210.68 337.255 1209.44 338.079 1207.94 338.67C1206.45 339.249 1204.75 339.539 1202.84 339.539ZM1231.01 339.539C1228.43 339.539 1226.21 338.988 1224.35 337.886C1222.5 336.772 1221.06 335.21 1220.05 333.198C1219.05 331.176 1218.55 328.806 1218.55 326.09C1218.55 323.408 1219.05 321.045 1220.05 318.999C1221.06 316.954 1222.47 315.357 1224.28 314.21C1226.1 313.062 1228.22 312.488 1230.66 312.488C1232.13 312.488 1233.56 312.732 1234.95 313.221C1236.34 313.71 1237.58 314.477 1238.68 315.522C1239.79 316.568 1240.66 317.926 1241.29 319.596C1241.93 321.255 1242.25 323.272 1242.25 325.647V327.454H1221.43V323.636H1237.25C1237.25 322.295 1236.98 321.107 1236.43 320.073C1235.89 319.028 1235.12 318.204 1234.13 317.602C1233.16 316.999 1232.01 316.698 1230.69 316.698C1229.26 316.698 1228.01 317.051 1226.94 317.755C1225.88 318.448 1225.06 319.357 1224.48 320.482C1223.92 321.596 1223.63 322.806 1223.63 324.113V327.096C1223.63 328.846 1223.94 330.335 1224.55 331.562C1225.18 332.789 1226.05 333.727 1227.16 334.374C1228.27 335.011 1229.58 335.329 1231.06 335.329C1232.03 335.329 1232.91 335.193 1233.71 334.92C1234.5 334.636 1235.19 334.215 1235.77 333.658C1236.35 333.102 1236.79 332.414 1237.1 331.596L1241.92 332.465C1241.54 333.886 1240.84 335.13 1239.84 336.198C1238.85 337.255 1237.61 338.079 1236.11 338.67C1234.62 339.249 1232.92 339.539 1231.01 339.539ZM1252.59 330.13L1252.55 323.908H1253.44L1263.87 312.829H1269.97L1258.08 325.443H1257.28L1252.59 330.13ZM1247.9 339.011V304.102H1253V339.011H1247.9ZM1264.43 339.011L1255.06 326.568L1258.57 323.005L1270.69 339.011H1264.43Z" fill="white"/>
<path fill-rule="evenodd" clip-rule="evenodd" d="M573.99 293.372C573.99 291.95 574.555 290.586 575.56 289.581C576.566 288.576 577.929 288.011 579.351 288.011H632.79C633.495 288.01 634.193 288.147 634.844 288.416C635.495 288.685 636.087 289.08 636.586 289.578C637.084 290.076 637.479 290.667 637.749 291.318C638.019 291.969 638.157 292.667 638.157 293.372V346.811C638.158 347.515 638.019 348.213 637.75 348.865C637.481 349.516 637.086 350.108 636.588 350.606C636.09 351.105 635.498 351.5 634.847 351.77C634.196 352.039 633.498 352.178 632.793 352.177H579.351C578.647 352.177 577.949 352.039 577.299 351.769C576.648 351.499 576.057 351.104 575.559 350.606C575.062 350.108 574.667 349.517 574.397 348.866C574.128 348.215 573.99 347.518 573.99 346.814V293.372ZM599.389 312.476H608.077V316.839C609.331 314.331 612.54 312.073 617.361 312.073C626.604 312.073 628.794 317.07 628.794 326.237V343.217H619.441V328.325C619.441 323.104 618.186 320.158 615.001 320.158C610.583 320.158 608.745 323.335 608.745 328.325V343.217H599.389V312.476ZM583.347 342.818H592.704V312.073H583.347V342.815V342.818ZM594.042 302.046C594.06 302.847 593.917 303.643 593.623 304.389C593.329 305.134 592.888 305.813 592.328 306.386C591.768 306.959 591.099 307.414 590.36 307.725C589.621 308.035 588.828 308.195 588.027 308.195C587.225 308.195 586.432 308.035 585.693 307.725C584.955 307.414 584.286 306.959 583.725 306.386C583.165 305.813 582.725 305.134 582.43 304.389C582.136 303.643 581.993 302.847 582.011 302.046C582.046 300.473 582.695 298.977 583.819 297.877C584.943 296.777 586.454 296.161 588.027 296.161C589.6 296.161 591.11 296.777 592.234 297.877C593.359 298.977 594.008 300.473 594.042 302.046V302.046Z" fill="#F8F8F8"/>
<path d="M1024.79 201.046C1024.35 200.817 1023.91 200.565 1023.5 200.293C1022.28 199.49 1021.17 198.544 1020.18 197.476C1017.7 194.644 1016.78 191.771 1016.44 189.761H1016.45C1016.17 188.09 1016.29 187.011 1016.31 187.011H1005.03V230.594C1005.03 231.178 1005.03 231.758 1005.01 232.33C1005.01 232.4 1005 232.464 1005 232.543C1005 232.572 1005 232.607 1004.99 232.639V232.665C1004.87 234.229 1004.37 235.739 1003.53 237.063C1002.69 238.388 1001.54 239.486 1000.18 240.26C998.756 241.069 997.147 241.494 995.511 241.491C990.261 241.491 986.003 237.209 986.003 231.922C986.003 226.631 990.261 222.349 995.511 222.349C996.506 222.349 997.495 222.507 998.44 222.816L998.454 211.336C995.584 210.965 992.669 211.194 989.891 212.007C987.114 212.821 984.536 214.201 982.319 216.061C980.376 217.748 978.743 219.762 977.492 222.011C977.017 222.83 975.22 226.129 975.004 231.478C974.867 234.512 975.78 237.662 976.215 238.959V238.989C976.486 239.753 977.547 242.366 979.274 244.568C980.667 246.336 982.312 247.889 984.157 249.177V249.147L984.183 249.177C989.637 252.881 995.689 252.639 995.689 252.639C996.736 252.595 1000.24 252.639 1004.23 250.752C1008.65 248.657 1011.16 245.539 1011.16 245.539C1012.77 243.676 1014.05 241.553 1014.94 239.26C1015.96 236.577 1016.3 233.362 1016.3 232.079V208.953C1016.44 209.034 1018.26 210.239 1018.26 210.239C1018.26 210.239 1020.89 211.922 1024.98 213.016C1027.91 213.794 1031.87 213.961 1031.87 213.961V202.769C1030.48 202.921 1027.67 202.484 1024.79 201.049L1024.79 201.046Z" fill="#F8F8F8"/>
<path d="M1087.43 243.505C1083.91 243.505 1080.79 243.022 1078.06 242.056C1075.34 241.102 1073.05 239.693 1071.19 237.829C1069.33 235.977 1067.91 233.704 1066.94 231.011C1065.98 228.318 1065.5 225.244 1065.5 221.789C1065.5 218.426 1065.98 215.403 1066.96 212.721C1067.94 210.039 1069.36 207.755 1071.22 205.869C1073.1 203.971 1075.38 202.522 1078.06 201.522C1080.74 200.522 1083.79 200.022 1087.19 200.022C1090.46 200.022 1093.33 200.533 1095.82 201.556C1098.31 202.579 1100.4 203.982 1102.09 205.766C1103.8 207.551 1105.08 209.596 1105.94 211.903C1106.81 214.21 1107.24 216.647 1107.24 219.215C1107.24 221.011 1107.13 222.766 1106.9 224.482C1106.67 226.187 1106.25 227.732 1105.64 229.119C1105.04 230.494 1104.16 231.596 1103.01 232.426C1101.88 233.244 1100.4 233.67 1098.58 233.704C1097.62 233.738 1096.68 233.624 1095.77 233.363C1094.86 233.102 1094.09 232.681 1093.45 232.102C1092.81 231.511 1092.43 230.761 1092.29 229.852H1092.09C1091.81 230.522 1091.36 231.147 1090.72 231.727C1090.09 232.295 1089.27 232.749 1088.29 233.09C1087.31 233.42 1086.17 233.556 1084.88 233.499C1083.44 233.443 1082.16 233.119 1081.01 232.528C1079.86 231.937 1078.88 231.119 1078.06 230.073C1077.25 229.028 1076.63 227.789 1076.2 226.357C1075.77 224.926 1075.55 223.335 1075.55 221.585C1075.55 219.903 1075.8 218.397 1076.29 217.068C1076.77 215.727 1077.44 214.573 1078.28 213.607C1079.13 212.63 1080.11 211.857 1081.21 211.289C1082.31 210.721 1083.48 210.363 1084.71 210.215C1085.9 210.079 1087 210.113 1088 210.318C1089 210.522 1089.83 210.835 1090.48 211.255C1091.16 211.676 1091.58 212.136 1091.75 212.636H1091.97V210.727H1096.16V226.545C1096.16 227.443 1096.39 228.204 1096.86 228.829C1097.34 229.454 1098.01 229.766 1098.89 229.766C1099.92 229.766 1100.73 229.386 1101.31 228.624C1101.9 227.863 1102.31 226.693 1102.55 225.113C1102.8 223.533 1102.93 221.511 1102.93 219.045C1102.93 217.318 1102.69 215.693 1102.23 214.17C1101.77 212.636 1101.1 211.249 1100.2 210.011C1099.31 208.761 1098.22 207.687 1096.93 206.789C1095.63 205.891 1094.16 205.198 1092.5 204.71C1090.85 204.221 1089.02 203.977 1087.02 203.977C1084.31 203.977 1081.89 204.397 1079.78 205.238C1077.67 206.068 1075.88 207.266 1074.43 208.835C1072.98 210.403 1071.89 212.283 1071.14 214.477C1070.4 216.658 1070.03 219.107 1070.03 221.823C1070.03 224.653 1070.41 227.164 1071.17 229.357C1071.93 231.539 1073.06 233.38 1074.55 234.88C1076.04 236.38 1077.88 237.516 1080.07 238.289C1082.26 239.073 1084.79 239.465 1087.66 239.465C1088.93 239.465 1090.18 239.352 1091.41 239.124C1092.63 238.908 1093.72 238.658 1094.68 238.374C1095.64 238.102 1096.37 237.88 1096.84 237.71L1098.04 241.443C1097.33 241.772 1096.39 242.096 1095.22 242.414C1094.06 242.732 1092.8 242.994 1091.44 243.198C1090.09 243.403 1088.75 243.505 1087.43 243.505ZM1085.87 229.323C1087.34 229.323 1088.53 229.028 1089.43 228.437C1090.34 227.846 1090.99 226.965 1091.39 225.795C1091.8 224.613 1092 223.136 1092 221.363C1091.99 219.636 1091.77 218.261 1091.34 217.238C1090.92 216.204 1090.26 215.465 1089.36 215.022C1088.47 214.568 1087.33 214.34 1085.93 214.34C1084.65 214.34 1083.55 214.653 1082.64 215.278C1081.75 215.903 1081.06 216.749 1080.58 217.818C1080.12 218.886 1079.88 220.073 1079.87 221.38C1079.88 222.755 1080.07 224.051 1080.44 225.266C1080.83 226.471 1081.46 227.448 1082.32 228.198C1083.19 228.948 1084.38 229.323 1085.87 229.323ZM1124.15 234.539C1121.57 234.539 1119.35 233.988 1117.49 232.886C1115.64 231.772 1114.2 230.21 1113.19 228.198C1112.19 226.176 1111.69 223.806 1111.69 221.09C1111.69 218.408 1112.19 216.045 1113.19 213.999C1114.2 211.954 1115.61 210.357 1117.42 209.21C1119.24 208.062 1121.36 207.488 1123.8 207.488C1125.27 207.488 1126.7 207.732 1128.09 208.221C1129.48 208.71 1130.72 209.477 1131.82 210.522C1132.93 211.568 1133.8 212.926 1134.43 214.596C1135.07 216.255 1135.39 218.272 1135.39 220.647V222.454H1114.57V218.636H1130.39C1130.39 217.295 1130.12 216.107 1129.57 215.073C1129.03 214.028 1128.26 213.204 1127.27 212.602C1126.3 211.999 1125.15 211.698 1123.83 211.698C1122.4 211.698 1121.15 212.051 1120.08 212.755C1119.02 213.448 1118.2 214.357 1117.63 215.482C1117.06 216.596 1116.77 217.806 1116.77 219.113V222.096C1116.77 223.846 1117.08 225.335 1117.69 226.562C1118.32 227.789 1119.19 228.727 1120.3 229.374C1121.41 230.011 1122.72 230.329 1124.2 230.329C1125.17 230.329 1126.05 230.193 1126.85 229.92C1127.64 229.636 1128.33 229.215 1128.91 228.658C1129.49 228.102 1129.93 227.414 1130.24 226.596L1135.06 227.465C1134.68 228.886 1133.98 230.13 1132.98 231.198C1131.99 232.255 1130.75 233.079 1129.25 233.67C1127.76 234.249 1126.06 234.539 1124.15 234.539ZM1141.04 243.829V207.829H1146.02V212.073H1146.44C1146.74 211.528 1147.17 210.897 1147.72 210.181C1148.28 209.465 1149.05 208.84 1150.04 208.306C1151.03 207.761 1152.34 207.488 1153.96 207.488C1156.08 207.488 1157.96 208.022 1159.62 209.09C1161.28 210.158 1162.58 211.698 1163.52 213.71C1164.48 215.721 1164.96 218.141 1164.96 220.971C1164.96 223.801 1164.48 226.227 1163.54 228.249C1162.6 230.261 1161.3 231.812 1159.66 232.903C1158.01 233.982 1156.13 234.522 1154.01 234.522C1152.42 234.522 1151.12 234.255 1150.11 233.721C1149.11 233.187 1148.33 232.562 1147.76 231.846C1147.19 231.13 1146.75 230.494 1146.44 229.937H1146.14V243.829H1141.04ZM1146.04 220.92C1146.04 222.761 1146.3 224.374 1146.84 225.761C1147.37 227.147 1148.14 228.232 1149.16 229.016C1150.17 229.789 1151.41 230.176 1152.87 230.176C1154.39 230.176 1155.67 229.772 1156.69 228.965C1157.71 228.147 1158.48 227.039 1159.01 225.641C1159.54 224.244 1159.81 222.67 1159.81 220.92C1159.81 219.193 1159.55 217.641 1159.02 216.266C1158.51 214.891 1157.74 213.806 1156.71 213.011C1155.68 212.215 1154.41 211.818 1152.87 211.818C1151.39 211.818 1150.14 212.198 1149.12 212.96C1148.11 213.721 1147.34 214.783 1146.82 216.147C1146.3 217.511 1146.04 219.102 1146.04 220.92ZM1175.55 234.011L1167.84 207.829H1173.11L1178.24 227.056H1178.49L1183.64 207.829H1188.91L1194.02 226.971H1194.28L1199.38 207.829H1204.64L1196.95 234.011H1191.76L1186.44 215.107H1186.05L1180.73 234.011H1175.55ZM1209.27 234.335C1208.34 234.335 1207.54 234.005 1206.87 233.346C1206.2 232.676 1205.87 231.869 1205.87 230.926C1205.87 229.994 1206.2 229.198 1206.87 228.539C1207.54 227.869 1208.34 227.533 1209.27 227.533C1210.21 227.533 1211.01 227.869 1211.68 228.539C1212.35 229.198 1212.68 229.994 1212.68 230.926C1212.68 231.551 1212.52 232.124 1212.21 232.647C1211.9 233.158 1211.49 233.568 1210.98 233.874C1210.47 234.181 1209.9 234.335 1209.27 234.335ZM1219.51 234.011V207.829H1224.61V234.011H1219.51ZM1222.08 203.789C1221.2 203.789 1220.44 203.494 1219.8 202.903C1219.17 202.301 1218.86 201.585 1218.86 200.755C1218.86 199.914 1219.17 199.198 1219.8 198.607C1220.44 198.005 1221.2 197.704 1222.08 197.704C1222.97 197.704 1223.73 198.005 1224.35 198.607C1224.99 199.198 1225.31 199.914 1225.31 200.755C1225.31 201.585 1224.99 202.301 1224.35 202.903C1223.73 203.494 1222.97 203.789 1222.08 203.789ZM1243.68 207.829V211.92H1229.38V207.829H1243.68ZM1233.22 201.556H1238.32V226.323C1238.32 227.312 1238.46 228.056 1238.76 228.556C1239.05 229.045 1239.43 229.38 1239.9 229.562C1240.38 229.732 1240.9 229.818 1241.45 229.818C1241.86 229.818 1242.22 229.789 1242.53 229.732C1242.83 229.676 1243.07 229.63 1243.24 229.596L1244.16 233.806C1243.87 233.92 1243.45 234.033 1242.9 234.147C1242.36 234.272 1241.67 234.34 1240.86 234.352C1239.51 234.374 1238.26 234.136 1237.11 233.636C1235.95 233.136 1235.01 232.363 1234.29 231.318C1233.58 230.272 1233.22 228.96 1233.22 227.38V201.556ZM1268.52 214.221L1263.9 215.039C1263.71 214.448 1263.4 213.886 1262.98 213.352C1262.57 212.818 1262.01 212.38 1261.31 212.039C1260.61 211.698 1259.72 211.528 1258.67 211.528C1257.22 211.528 1256.02 211.852 1255.05 212.499C1254.09 213.136 1253.61 213.96 1253.61 214.971C1253.61 215.846 1253.93 216.551 1254.58 217.085C1255.22 217.619 1256.27 218.056 1257.71 218.397L1261.87 219.352C1264.28 219.908 1266.08 220.766 1267.26 221.926C1268.44 223.085 1269.03 224.59 1269.03 226.443C1269.03 228.011 1268.58 229.408 1267.67 230.636C1266.77 231.852 1265.51 232.806 1263.9 233.499C1262.3 234.193 1260.44 234.539 1258.33 234.539C1255.4 234.539 1253 233.914 1251.15 232.664C1249.3 231.403 1248.16 229.613 1247.74 227.295L1252.67 226.545C1252.97 227.829 1253.61 228.801 1254.56 229.46C1255.51 230.107 1256.76 230.431 1258.29 230.431C1259.96 230.431 1261.3 230.085 1262.3 229.391C1263.3 228.687 1263.8 227.829 1263.8 226.818C1263.8 225.999 1263.49 225.312 1262.88 224.755C1262.28 224.198 1261.35 223.778 1260.1 223.494L1255.67 222.522C1253.22 221.965 1251.42 221.079 1250.25 219.863C1249.09 218.647 1248.51 217.107 1248.51 215.244C1248.51 213.698 1248.94 212.346 1249.8 211.187C1250.67 210.028 1251.86 209.124 1253.38 208.477C1254.91 207.818 1256.65 207.488 1258.62 207.488C1261.45 207.488 1263.67 208.102 1265.3 209.329C1266.92 210.545 1268 212.176 1268.52 214.221Z" fill="white"/>
<path fill-rule="evenodd" clip-rule="evenodd" d="M594.561 185.221C598.293 185.049 599.483 185.011 608.99 185.011C618.498 185.011 619.688 185.052 623.417 185.221C627.146 185.389 629.691 185.984 631.918 186.847C634.251 187.728 636.367 189.106 638.117 190.888C639.898 192.634 641.273 194.747 642.151 197.083C643.017 199.31 643.608 201.855 643.78 205.578C643.952 209.317 643.99 210.507 643.99 220.011C643.99 229.518 643.949 230.708 643.78 234.44C643.612 238.163 643.017 240.708 642.151 242.936C641.273 245.271 639.896 247.388 638.117 249.137C636.367 250.919 634.251 252.293 631.918 253.172C629.691 254.037 627.146 254.629 623.423 254.801C619.688 254.973 618.498 255.011 608.99 255.011C599.483 255.011 598.293 254.969 594.561 254.801C590.838 254.632 588.293 254.037 586.065 253.172C583.73 252.293 581.613 250.917 579.864 249.137C578.083 247.389 576.705 245.274 575.826 242.939C574.964 240.712 574.372 238.166 574.2 234.443C574.028 230.705 573.99 229.515 573.99 220.011C573.99 210.503 574.032 209.313 574.2 205.584C574.369 201.855 574.964 199.31 575.826 197.083C576.707 194.747 578.086 192.632 579.867 190.884C581.614 189.104 583.728 187.726 586.062 186.847C588.289 185.984 590.835 185.393 594.558 185.221H594.561ZM623.133 191.521C619.443 191.352 618.335 191.317 608.99 191.317C599.645 191.317 598.538 191.352 594.847 191.521C591.433 191.677 589.581 192.246 588.347 192.727C586.714 193.363 585.547 194.117 584.322 195.342C583.16 196.472 582.267 197.847 581.706 199.367C581.226 200.602 580.656 202.453 580.5 205.868C580.332 209.558 580.297 210.666 580.297 220.011C580.297 229.356 580.332 230.463 580.5 234.154C580.656 237.568 581.226 239.42 581.706 240.654C582.266 242.172 583.16 243.55 584.322 244.679C585.451 245.841 586.829 246.735 588.347 247.295C589.581 247.775 591.433 248.345 594.847 248.501C598.538 248.669 599.642 248.704 608.99 248.704C618.338 248.704 619.443 248.669 623.133 248.501C626.548 248.345 628.399 247.775 629.634 247.295C631.266 246.658 632.434 245.904 633.659 244.679C634.82 243.55 635.714 242.172 636.274 240.654C636.755 239.42 637.324 237.568 637.48 234.154C637.649 230.463 637.684 229.356 637.684 220.011C637.684 210.666 637.649 209.558 637.48 205.868C637.324 202.453 636.755 200.602 636.274 199.367C635.638 197.735 634.884 196.567 633.659 195.342C632.529 194.181 631.154 193.287 629.634 192.727C628.399 192.246 626.548 191.677 623.133 191.521V191.521ZM604.52 230.8C607.016 231.84 609.796 231.98 612.385 231.197C614.974 230.414 617.21 228.757 618.713 226.509C620.215 224.26 620.89 221.56 620.623 218.869C620.356 216.178 619.163 213.663 617.247 211.754C616.026 210.534 614.55 209.599 612.924 209.018C611.298 208.437 609.564 208.223 607.846 208.393C606.128 208.562 604.469 209.11 602.989 209.998C601.508 210.886 600.243 212.09 599.283 213.526C598.324 214.961 597.695 216.591 597.442 218.299C597.188 220.006 597.317 221.749 597.817 223.401C598.318 225.053 599.179 226.574 600.338 227.853C601.497 229.132 602.925 230.139 604.52 230.8ZM596.269 207.29C597.94 205.619 599.923 204.294 602.106 203.39C604.288 202.486 606.628 202.021 608.99 202.021C611.353 202.021 613.692 202.486 615.875 203.39C618.057 204.294 620.041 205.619 621.711 207.29C623.382 208.96 624.707 210.944 625.611 213.126C626.515 215.309 626.98 217.648 626.98 220.011C626.98 222.373 626.515 224.713 625.611 226.895C624.707 229.078 623.382 231.061 621.711 232.732C618.337 236.105 613.762 238.001 608.99 238.001C604.219 238.001 599.643 236.105 596.269 232.732C592.896 229.358 591 224.782 591 220.011C591 215.239 592.896 210.664 596.269 207.29V207.29ZM630.97 204.7C631.384 204.309 631.716 203.84 631.945 203.319C632.174 202.798 632.296 202.236 632.305 201.667C632.313 201.098 632.207 200.533 631.993 200.006C631.779 199.479 631.462 199 631.059 198.597C630.657 198.195 630.178 197.877 629.65 197.663C629.123 197.449 628.558 197.343 627.989 197.352C627.42 197.36 626.858 197.482 626.338 197.712C625.817 197.941 625.347 198.272 624.957 198.686C624.197 199.491 623.781 200.561 623.797 201.667C623.814 202.774 624.26 203.831 625.043 204.613C625.826 205.396 626.882 205.843 627.989 205.859C629.096 205.875 630.165 205.459 630.97 204.7V204.7Z" fill="#F8F8F8"/>
<path d="M693.433 242.505C689.911 242.505 686.786 242.022 684.058 241.056C681.343 240.102 679.053 238.693 677.189 236.829C675.325 234.977 673.911 232.704 672.945 230.011C671.979 227.318 671.496 224.244 671.496 220.789C671.496 217.426 671.985 214.403 672.962 211.721C673.939 209.039 675.36 206.755 677.223 204.869C679.098 202.971 681.377 201.522 684.058 200.522C686.74 199.522 689.786 199.022 693.195 199.022C696.456 199.022 699.331 199.533 701.82 200.556C704.308 201.579 706.399 202.982 708.093 204.766C709.797 206.551 711.081 208.596 711.945 210.903C712.808 213.21 713.24 215.647 713.24 218.215C713.24 220.011 713.127 221.766 712.899 223.482C712.672 225.187 712.252 226.732 711.638 228.119C711.036 229.494 710.161 230.596 709.013 231.426C707.877 232.244 706.399 232.67 704.581 232.704C703.615 232.738 702.678 232.624 701.769 232.363C700.86 232.102 700.087 231.681 699.45 231.102C698.814 230.511 698.428 229.761 698.291 228.852H698.087C697.814 229.522 697.36 230.147 696.723 230.727C696.087 231.295 695.274 231.749 694.286 232.09C693.308 232.42 692.172 232.556 690.877 232.499C689.445 232.443 688.155 232.119 687.007 231.528C685.86 230.937 684.877 230.119 684.058 229.073C683.252 228.028 682.632 226.789 682.2 225.357C681.769 223.926 681.553 222.335 681.553 220.585C681.553 218.903 681.797 217.397 682.286 216.068C682.774 214.727 683.439 213.573 684.28 212.607C685.132 211.63 686.11 210.857 687.212 210.289C688.314 209.721 689.479 209.363 690.706 209.215C691.899 209.079 692.996 209.113 693.996 209.318C694.996 209.522 695.825 209.835 696.485 210.255C697.155 210.676 697.575 211.136 697.746 211.636H697.968V209.727H702.161V225.545C702.161 226.443 702.394 227.204 702.86 227.829C703.337 228.454 704.013 228.766 704.888 228.766C705.922 228.766 706.729 228.386 707.308 227.624C707.899 226.863 708.314 225.693 708.553 224.113C708.803 222.533 708.928 220.511 708.928 218.045C708.928 216.318 708.695 214.693 708.229 213.17C707.774 211.636 707.098 210.249 706.2 209.011C705.314 207.761 704.223 206.687 702.928 205.789C701.632 204.891 700.155 204.198 698.496 203.71C696.848 203.221 695.024 202.977 693.024 202.977C690.308 202.977 687.894 203.397 685.78 204.238C683.666 205.068 681.882 206.266 680.428 207.835C678.985 209.403 677.888 211.283 677.138 213.477C676.399 215.658 676.03 218.107 676.03 220.823C676.03 223.653 676.411 226.164 677.172 228.357C677.933 230.539 679.058 232.38 680.547 233.88C682.036 235.38 683.877 236.516 686.07 237.289C688.263 238.073 690.791 238.465 693.655 238.465C694.928 238.465 696.178 238.352 697.405 238.124C698.632 237.908 699.723 237.658 700.678 237.374C701.644 237.102 702.365 236.88 702.843 236.71L704.036 240.443C703.331 240.772 702.394 241.096 701.223 241.414C700.064 241.732 698.803 241.994 697.439 242.198C696.087 242.403 694.752 242.505 693.433 242.505ZM691.865 228.323C693.343 228.323 694.53 228.028 695.428 227.437C696.337 226.846 696.99 225.965 697.388 224.795C697.797 223.613 698.002 222.136 698.002 220.363C697.99 218.636 697.769 217.261 697.337 216.238C696.916 215.204 696.257 214.465 695.36 214.022C694.473 213.568 693.331 213.34 691.933 213.34C690.649 213.34 689.553 213.653 688.644 214.278C687.746 214.903 687.058 215.749 686.581 216.818C686.115 217.886 685.877 219.073 685.865 220.38C685.877 221.755 686.07 223.051 686.445 224.266C686.831 225.471 687.456 226.448 688.32 227.198C689.195 227.948 690.377 228.323 691.865 228.323ZM730.154 233.539C727.574 233.539 725.352 232.988 723.489 231.886C721.637 230.772 720.205 229.21 719.193 227.198C718.193 225.176 717.693 222.806 717.693 220.09C717.693 217.408 718.193 215.045 719.193 212.999C720.205 210.954 721.614 209.357 723.421 208.21C725.239 207.062 727.364 206.488 729.796 206.488C731.273 206.488 732.705 206.732 734.091 207.221C735.477 207.71 736.722 208.477 737.824 209.522C738.926 210.568 739.796 211.926 740.432 213.596C741.068 215.255 741.387 217.272 741.387 219.647V221.454H720.574V217.636H736.392C736.392 216.295 736.119 215.107 735.574 214.073C735.029 213.028 734.262 212.204 733.273 211.602C732.296 210.999 731.148 210.698 729.83 210.698C728.398 210.698 727.148 211.051 726.08 211.755C725.023 212.448 724.205 213.357 723.625 214.482C723.057 215.596 722.773 216.806 722.773 218.113V221.096C722.773 222.846 723.08 224.335 723.693 225.562C724.318 226.789 725.188 227.727 726.301 228.374C727.415 229.011 728.716 229.329 730.205 229.329C731.171 229.329 732.051 229.193 732.847 228.92C733.642 228.636 734.33 228.215 734.909 227.658C735.489 227.102 735.932 226.414 736.239 225.596L741.063 226.465C740.676 227.886 739.983 229.13 738.983 230.198C737.994 231.255 736.75 232.079 735.25 232.67C733.762 233.249 732.063 233.539 730.154 233.539ZM747.041 242.829V206.829H752.019V211.073H752.445C752.74 210.528 753.166 209.897 753.723 209.181C754.28 208.465 755.053 207.84 756.041 207.306C757.03 206.761 758.337 206.488 759.962 206.488C762.075 206.488 763.962 207.022 765.621 208.09C767.28 209.158 768.581 210.698 769.524 212.71C770.479 214.721 770.956 217.141 770.956 219.971C770.956 222.801 770.485 225.227 769.541 227.249C768.598 229.261 767.303 230.812 765.655 231.903C764.007 232.982 762.127 233.522 760.013 233.522C758.422 233.522 757.121 233.255 756.11 232.721C755.11 232.187 754.325 231.562 753.757 230.846C753.189 230.13 752.752 229.494 752.445 228.937H752.138V242.829H747.041ZM752.036 219.92C752.036 221.761 752.303 223.374 752.837 224.761C753.371 226.147 754.144 227.232 755.155 228.016C756.166 228.789 757.405 229.176 758.871 229.176C760.394 229.176 761.666 228.772 762.689 227.965C763.712 227.147 764.485 226.039 765.007 224.641C765.541 223.244 765.808 221.67 765.808 219.92C765.808 218.193 765.547 216.641 765.024 215.266C764.513 213.891 763.74 212.806 762.706 212.011C761.683 211.215 760.405 210.818 758.871 210.818C757.394 210.818 756.144 211.198 755.121 211.96C754.11 212.721 753.343 213.783 752.82 215.147C752.297 216.511 752.036 218.102 752.036 219.92ZM781.546 233.011L773.841 206.829H779.108L784.239 226.056H784.494L789.642 206.829H794.909L800.023 225.971H800.279L805.375 206.829H810.642L802.955 233.011H797.756L792.438 214.107H792.046L786.727 233.011H781.546ZM834.178 233.011V237.34H812.002V233.011H834.178ZM839.198 233.011V206.829H844.294V233.011H839.198ZM841.771 202.789C840.885 202.789 840.124 202.494 839.487 201.903C838.862 201.301 838.55 200.585 838.55 199.755C838.55 198.914 838.862 198.198 839.487 197.607C840.124 197.005 840.885 196.704 841.771 196.704C842.658 196.704 843.414 197.005 844.039 197.607C844.675 198.198 844.993 198.914 844.993 199.755C844.993 200.585 844.675 201.301 844.039 201.903C843.414 202.494 842.658 202.789 841.771 202.789ZM863.372 206.829V210.92H849.071V206.829H863.372ZM852.906 200.556H858.003V225.323C858.003 226.312 858.151 227.056 858.446 227.556C858.742 228.045 859.122 228.38 859.588 228.562C860.066 228.732 860.583 228.818 861.139 228.818C861.548 228.818 861.906 228.789 862.213 228.732C862.52 228.676 862.759 228.63 862.929 228.596L863.85 232.806C863.554 232.92 863.134 233.033 862.588 233.147C862.043 233.272 861.361 233.34 860.543 233.352C859.202 233.374 857.952 233.136 856.793 232.636C855.634 232.136 854.696 231.363 853.98 230.318C853.264 229.272 852.906 227.96 852.906 226.38V200.556ZM888.208 213.221L883.588 214.039C883.395 213.448 883.088 212.886 882.668 212.352C882.259 211.818 881.702 211.38 880.997 211.039C880.293 210.698 879.412 210.528 878.355 210.528C876.912 210.528 875.708 210.852 874.742 211.499C873.776 212.136 873.293 212.96 873.293 213.971C873.293 214.846 873.617 215.551 874.264 216.085C874.912 216.619 875.958 217.056 877.401 217.397L881.56 218.352C883.969 218.908 885.764 219.766 886.946 220.926C888.128 222.085 888.719 223.59 888.719 225.443C888.719 227.011 888.264 228.408 887.355 229.636C886.458 230.852 885.202 231.806 883.588 232.499C881.986 233.193 880.128 233.539 878.014 233.539C875.083 233.539 872.691 232.914 870.838 231.664C868.986 230.403 867.85 228.613 867.429 226.295L872.355 225.545C872.662 226.829 873.293 227.801 874.247 228.46C875.202 229.107 876.446 229.431 877.98 229.431C879.651 229.431 880.986 229.085 881.986 228.391C882.986 227.687 883.486 226.829 883.486 225.818C883.486 224.999 883.179 224.312 882.566 223.755C881.963 223.198 881.037 222.778 879.787 222.494L875.355 221.522C872.912 220.965 871.105 220.079 869.935 218.863C868.776 217.647 868.196 216.107 868.196 214.244C868.196 212.698 868.628 211.346 869.492 210.187C870.355 209.028 871.548 208.124 873.071 207.477C874.594 206.818 876.338 206.488 878.304 206.488C881.134 206.488 883.361 207.102 884.986 208.329C886.611 209.545 887.685 211.176 888.208 213.221Z" fill="white"/>
<path d="M633.202 83.3076H620.137C619.898 81.6173 619.411 80.1159 618.675 78.8034C617.939 77.471 616.994 76.3374 615.841 75.4028C614.688 74.4681 613.355 73.7522 611.844 73.2551C610.352 72.7579 608.732 72.5093 606.982 72.5093C603.82 72.5093 601.066 73.2948 598.719 74.8659C596.372 76.417 594.553 78.684 593.26 81.667C591.968 84.6301 591.321 88.2295 591.321 92.4653C591.321 96.8204 591.968 100.479 593.26 103.443C594.573 106.406 596.402 108.643 598.749 110.154C601.095 111.666 603.81 112.421 606.892 112.421C608.622 112.421 610.223 112.193 611.695 111.735C613.186 111.278 614.509 110.612 615.662 109.737C616.816 108.842 617.77 107.758 618.526 106.485C619.301 105.212 619.838 103.761 620.137 102.13L633.202 102.19C632.864 104.994 632.019 107.698 630.666 110.303C629.334 112.889 627.534 115.205 625.267 117.254C623.02 119.282 620.335 120.893 617.213 122.086C614.111 123.259 610.601 123.846 606.683 123.846C601.235 123.846 596.362 122.613 592.067 120.147C587.791 117.681 584.411 114.112 581.925 109.438C579.459 104.765 578.226 99.1073 578.226 92.4653C578.226 85.8034 579.479 80.1357 581.985 75.4624C584.49 70.7891 587.891 67.2295 592.186 64.7835C596.482 62.3176 601.314 61.0846 606.683 61.0846C610.223 61.0846 613.504 61.5818 616.527 62.5761C619.57 63.5704 622.264 65.0221 624.611 66.9312C626.958 68.8204 628.867 71.1372 630.338 73.8815C631.83 76.6258 632.784 79.7678 633.202 83.3076ZM662.927 123.906C658.294 123.906 654.286 122.921 650.906 120.953C647.545 118.964 644.95 116.2 643.12 112.66C641.291 109.1 640.376 104.974 640.376 100.281C640.376 95.5477 641.291 91.4113 643.12 87.8715C644.95 84.3119 647.545 81.5477 650.906 79.5789C654.286 77.5903 658.294 76.596 662.927 76.596C667.561 76.596 671.558 77.5903 674.919 79.5789C678.299 81.5477 680.904 84.3119 682.734 87.8715C684.563 91.4113 685.478 95.5477 685.478 100.281C685.478 104.974 684.563 109.1 682.734 112.66C680.904 116.2 678.299 118.964 674.919 120.953C671.558 122.921 667.561 123.906 662.927 123.906ZM662.987 114.062C665.095 114.062 666.855 113.465 668.267 112.272C669.678 111.059 670.742 109.408 671.458 107.32C672.194 105.232 672.562 102.856 672.562 100.191C672.562 97.5264 672.194 95.1499 671.458 93.0619C670.742 90.9738 669.678 89.3232 668.267 88.1102C666.855 86.8971 665.095 86.2906 662.987 86.2906C660.859 86.2906 659.069 86.8971 657.617 88.1102C656.186 89.3232 655.102 90.9738 654.366 93.0619C653.65 95.1499 653.292 97.5264 653.292 100.191C653.292 102.856 653.65 105.232 654.366 107.32C655.102 109.408 656.186 111.059 657.617 112.272C659.069 113.465 660.859 114.062 662.987 114.062ZM706.448 96.5221V123.011H693.741V77.1926H705.852V85.2764H706.389C707.403 82.6116 709.103 80.5036 711.49 78.9525C713.876 77.3815 716.769 76.596 720.17 76.596C723.352 76.596 726.126 77.292 728.492 78.684C730.859 80.0761 732.698 82.0647 734.011 84.6499C735.323 87.2153 735.98 90.2778 735.98 93.8374V123.011H723.272V96.1045C723.292 93.3005 722.576 91.113 721.124 89.542C719.673 87.9511 717.674 87.1556 715.129 87.1556C713.419 87.1556 711.907 87.5235 710.595 88.2593C709.302 88.9951 708.288 90.069 707.552 91.4809C706.836 92.873 706.468 94.5534 706.448 96.5221ZM770.366 77.1926V86.738H742.773V77.1926H770.366ZM749.037 66.2153H761.745V108.931C761.745 110.104 761.924 111.019 762.282 111.676C762.64 112.312 763.137 112.759 763.773 113.018C764.43 113.276 765.185 113.406 766.04 113.406C766.637 113.406 767.233 113.356 767.83 113.256C768.427 113.137 768.884 113.048 769.202 112.988L771.201 122.444C770.564 122.643 769.67 122.872 768.516 123.13C767.363 123.408 765.961 123.578 764.31 123.637C761.248 123.756 758.563 123.349 756.256 122.414C753.969 121.479 752.189 120.028 750.917 118.059C749.644 116.09 749.018 113.604 749.037 110.602V66.2153ZM791.709 123.876C788.785 123.876 786.18 123.369 783.893 122.354C781.606 121.32 779.797 119.799 778.464 117.791C777.152 115.762 776.496 113.237 776.496 110.214C776.496 107.668 776.963 105.531 777.898 103.801C778.832 102.07 780.105 100.678 781.716 99.6244C783.327 98.5704 785.156 97.7749 787.204 97.238C789.273 96.7011 791.44 96.3232 793.707 96.1045C796.372 95.8261 798.52 95.5676 800.15 95.3289C801.781 95.0704 802.964 94.6926 803.7 94.1954C804.436 93.6982 804.804 92.9624 804.804 91.988V91.809C804.804 89.9198 804.207 88.4582 803.014 87.4241C801.841 86.39 800.17 85.873 798.003 85.873C795.716 85.873 793.896 86.3801 792.544 87.3943C791.192 88.3886 790.297 89.6414 789.859 91.1528L778.106 90.1982C778.703 87.4141 779.876 85.0079 781.626 82.9795C783.376 80.9312 785.633 79.3602 788.398 78.2664C791.182 77.1528 794.403 76.596 798.062 76.596C800.608 76.596 803.044 76.8943 805.371 77.4909C807.717 78.0874 809.795 79.0122 811.605 80.265C813.434 81.5178 814.876 83.1286 815.93 85.0974C816.984 87.0463 817.511 89.3829 817.511 92.1073V123.011H805.46V116.657H805.102C804.366 118.089 803.382 119.352 802.149 120.445C800.916 121.519 799.434 122.364 797.704 122.981C795.974 123.578 793.976 123.876 791.709 123.876ZM795.348 115.106C797.217 115.106 798.868 114.738 800.3 114.002C801.731 113.247 802.855 112.232 803.67 110.96C804.486 109.687 804.893 108.245 804.893 106.634V101.772C804.496 102.031 803.949 102.269 803.253 102.488C802.577 102.687 801.811 102.876 800.956 103.055C800.101 103.214 799.246 103.363 798.39 103.502C797.535 103.622 796.76 103.731 796.064 103.83C794.572 104.049 793.27 104.397 792.156 104.874C791.042 105.352 790.177 105.998 789.561 106.813C788.944 107.609 788.636 108.603 788.636 109.796C788.636 111.526 789.263 112.849 790.515 113.764C791.788 114.658 793.399 115.106 795.348 115.106ZM848.072 123.906C843.378 123.906 839.341 122.911 835.961 120.923C832.6 118.914 830.015 116.13 828.205 112.57C826.415 109.011 825.52 104.914 825.52 100.281C825.52 95.5874 826.425 91.471 828.235 87.9312C830.064 84.3715 832.66 81.5974 836.02 79.6088C839.381 77.6002 843.378 76.596 848.012 76.596C852.009 76.596 855.509 77.3218 858.512 78.7735C861.515 80.2252 863.891 82.2636 865.641 84.8886C867.391 87.5136 868.356 90.596 868.535 94.1357H856.543C856.205 91.8488 855.31 90.0093 853.858 88.6173C852.427 87.2053 850.547 86.4994 848.221 86.4994C846.252 86.4994 844.532 87.0363 843.06 88.1102C841.608 89.1642 840.475 90.7053 839.66 92.7338C838.844 94.7622 838.437 97.2181 838.437 100.102C838.437 103.025 838.834 105.511 839.63 107.559C840.445 109.607 841.589 111.168 843.06 112.242C844.532 113.316 846.252 113.853 848.221 113.853C849.672 113.853 850.975 113.555 852.128 112.958C853.302 112.362 854.266 111.497 855.022 110.363C855.797 109.21 856.305 107.828 856.543 106.217H868.535C868.336 109.717 867.381 112.799 865.671 115.464C863.981 118.109 861.644 120.177 858.661 121.668C855.678 123.16 852.148 123.906 848.072 123.906ZM901.041 77.1926V86.738H873.449V77.1926H901.041ZM879.713 66.2153H892.421V108.931C892.421 110.104 892.6 111.019 892.958 111.676C893.316 112.312 893.813 112.759 894.449 113.018C895.105 113.276 895.861 113.406 896.716 113.406C897.313 113.406 897.909 113.356 898.506 113.256C899.102 113.137 899.56 113.048 899.878 112.988L901.877 122.444C901.24 122.643 900.345 122.872 899.192 123.13C898.039 123.408 896.637 123.578 894.986 123.637C891.923 123.756 889.239 123.349 886.932 122.414C884.645 121.479 882.865 120.028 881.593 118.059C880.32 116.09 879.693 113.604 879.713 110.602V66.2153ZM966.733 61.9198H979.65V101.593C979.65 106.048 978.586 109.945 976.458 113.286C974.35 116.627 971.397 119.232 967.599 121.102C963.8 122.951 959.376 123.876 954.324 123.876C949.253 123.876 944.819 122.951 941.02 121.102C937.222 119.232 934.269 116.627 932.161 113.286C930.053 109.945 928.999 106.048 928.999 101.593V61.9198H941.915V100.489C941.915 102.816 942.422 104.884 943.437 106.694C944.471 108.504 945.922 109.926 947.792 110.96C949.661 111.994 951.839 112.511 954.324 112.511C956.83 112.511 959.008 111.994 960.857 110.96C962.726 109.926 964.168 108.504 965.182 106.694C966.216 104.884 966.733 102.816 966.733 100.489V61.9198ZM1028.16 90.2579L1016.53 90.9738C1016.33 89.9795 1015.9 89.0846 1015.24 88.2892C1014.59 87.4738 1013.72 86.8275 1012.65 86.3502C1011.59 85.8531 1010.33 85.6045 1008.86 85.6045C1006.89 85.6045 1005.23 86.0221 1003.88 86.8573C1002.53 87.6727 1001.85 88.7664 1001.85 90.1386C1001.85 91.2323 1002.29 92.157 1003.16 92.9127C1004.04 93.6684 1005.54 94.2749 1007.67 94.7323L1015.96 96.4028C1020.41 97.3176 1023.74 98.7891 1025.92 100.818C1028.11 102.846 1029.2 105.511 1029.2 108.812C1029.2 111.815 1028.32 114.45 1026.55 116.717C1024.8 118.984 1022.39 120.754 1019.33 122.026C1016.29 123.279 1012.78 123.906 1008.8 123.906C1002.74 123.906 997.903 122.643 994.303 120.117C990.724 117.572 988.626 114.112 988.009 109.737L1000.51 109.08C1000.89 110.93 1001.8 112.342 1003.25 113.316C1004.7 114.271 1006.56 114.748 1008.83 114.748C1011.06 114.748 1012.85 114.32 1014.2 113.465C1015.57 112.59 1016.27 111.467 1016.29 110.095C1016.27 108.941 1015.78 107.997 1014.83 107.261C1013.87 106.505 1012.4 105.928 1010.41 105.531L1002.48 103.95C998.002 103.055 994.671 101.504 992.484 99.2963C990.316 97.0889 989.232 94.2749 989.232 90.8545C989.232 87.9113 990.028 85.3758 991.619 83.248C993.23 81.1201 995.487 79.4795 998.39 78.3261C1001.31 77.1727 1004.73 76.596 1008.65 76.596C1014.44 76.596 1018.99 77.819 1022.31 80.265C1025.65 82.711 1027.6 86.042 1028.16 90.2579ZM1052.39 61.9198L1051.23 104.695H1040.31L1039.11 61.9198H1052.39ZM1045.77 123.786C1043.8 123.786 1042.11 123.09 1040.7 121.698C1039.28 120.286 1038.59 118.596 1038.61 116.627C1038.59 114.678 1039.28 113.008 1040.7 111.616C1042.11 110.224 1043.8 109.528 1045.77 109.528C1047.66 109.528 1049.32 110.224 1050.75 111.616C1052.18 113.008 1052.91 114.678 1052.93 116.627C1052.91 117.94 1052.56 119.143 1051.88 120.237C1051.23 121.31 1050.36 122.176 1049.29 122.832C1048.21 123.468 1047.04 123.786 1045.77 123.786Z" fill="white"/>
<path d="M573.99 139.715H1059.4V145.443H573.99V139.715Z" fill="white"/>
<path fill-rule="evenodd" clip-rule="evenodd" d="M205.359 84.8894C273.893 81.9259 328.899 135.871 331.473 201.016C334.309 269.633 280.461 324.736 215.021 327.179C146.364 329.757 91.4866 276.197 88.9132 210.924C86.0474 142.172 139.779 87.5899 205.359 84.8894ZM273.636 91.8394C262.43 84.5036 240.527 77.9336 224.426 76.2619C186.299 72.141 154.09 83.4749 125.754 106.388C116.478 113.852 101.02 131.523 95.9958 142.436C66.1094 144.107 -1.51803 148.865 0.0259998 180.675C0.926686 197.041 19.7357 212.601 28.883 219.294C38.4162 226.244 49.2363 232.686 60.0562 238.478C63.4075 240.407 68.6887 244.399 71.3908 241.05C72.0341 239.507 69.332 225.215 68.4313 223.158C67.0101 219.809 58.3836 212.601 55.2897 209.252C38.9136 191.36 36.6091 171.258 61.4715 158.013C69.9754 153.506 82.9826 148.614 93.5452 146.685C92.3755 150.42 89.8138 154.927 88.2815 159.042C71.5369 201.916 79.3975 250.812 107.348 286.368C109.927 289.717 112.758 292.938 115.466 296.024C117.01 297.696 124.093 303.752 124.479 305.166C125.128 307.738 125.256 318.558 125.514 322.158C126.029 327.694 126.543 333.229 127.186 338.77C130.28 361.941 137.878 413.694 171.887 395.03C175.233 393.096 179.742 389.881 182.064 387.432L188.761 380.739C189.661 379.71 190.176 378.933 190.954 378.033C196.718 371.384 201.812 364.183 206.16 356.534C209.769 349.97 203.072 349.07 198.177 348.549C182.205 347.135 186.07 347.135 177.052 352.641C175.049 353.911 172.885 354.907 170.618 355.605C165.612 357.451 160.096 357.36 155.155 355.347C148.072 352.384 142.019 343.891 138.281 336.058C136.223 331.551 129.392 313.659 129.508 308.767C131.573 311.339 146.902 320.223 150.768 322.152C195.849 344.949 246.475 340.308 287.041 311.596C294.644 306.335 304.177 297.433 309.716 290.612C315.255 283.79 315.898 282.633 320.922 275.414C346.556 274.514 392.158 269.879 408.651 256.879C433.385 237.438 388.684 202.29 379.279 194.82C374.255 190.834 369.489 187.485 364.073 183.621C361.733 181.949 358.809 178.986 355.189 180.143C351.194 181.312 351.194 184.521 351.58 189.156C352.352 199.841 355.06 202.162 360.213 207.44C375.542 223.018 385.59 243.23 363.301 257.65C355.317 262.8 335.093 270.264 323.624 271.036C327.104 263.957 330.455 257.908 333.415 249.537C348.621 207.826 339.988 158.13 312.547 124.789C304.821 115.39 297.989 108.563 288.076 101.227C285.737 99.4265 280.988 95.82 278.414 94.6626C277.244 64.665 271.454 26.1684 255.868 7.63325C252.394 3.64097 245.305 -1.25147 236.567 0.291661C215.571 4.15535 193.545 39.6884 183.754 57.3234C182.468 59.5153 179.374 63.8934 180.146 66.5939C181.316 70.5862 186.977 69.043 190.708 68.7859C204.745 67.4941 201.92 68.2715 208.874 59.6439C212.74 54.8801 217.893 49.6019 222.911 45.9954C246.89 28.4597 260.781 51.0164 267.74 70.5862C269.156 74.3213 273.794 88.3498 273.665 91.8277L273.636 91.8394Z" fill="white"/>
<path fill-rule="evenodd" clip-rule="evenodd" d="M146.873 190.845C134.117 192.646 123.683 198.567 114.542 206.043C110.418 209.258 110.418 211.45 112.477 216.857C117.741 231.405 127.163 247.883 141.72 250.969C140.047 260.111 139.918 265.261 143.135 273.766C145.714 280.073 149.317 286.38 152.926 290.758C159.494 299.128 160.137 301.571 168.641 297.322C179.204 292.172 192.86 284.579 198.527 274.151C204.066 263.981 198.141 256.616 191.702 259.474C184.614 262.566 194.404 264.109 181.011 275.437C177.788 278.272 169.314 283.551 164.518 285.479C158.207 278.272 148.674 262.438 154.856 251.747C156.663 248.66 161.172 246.597 158.722 241.447C154.856 233.212 146.744 244.797 136.439 233.983C133.087 230.634 125.619 220.335 124.847 213.899C127.806 211.07 135.152 206.949 139.784 205.131C152.797 199.982 152.651 207.709 158.85 206.3C167.097 204.623 161.816 195.481 160.02 190.594C157.681 184.41 156.417 178.36 155.517 171.305C154.224 162.163 156.031 159.199 160.412 153.407C167.752 144.136 192.229 126.63 201.504 123.409C210.003 135.515 218.506 149.672 217.219 166.027C216.705 172.977 223.402 175.964 227.654 171.691C233.192 166.155 227.396 145.3 224.817 139.244C221.052 130.306 216.114 121.908 210.131 114.273C206.137 109.252 204.464 107.703 197.264 111.567C179.484 120.837 150.633 138.215 144.042 157.399C140.182 168.341 144.814 180.575 146.878 190.875L146.873 190.845Z" fill="white"/>
<path fill-rule="evenodd" clip-rule="evenodd" d="M353.744 283.539C351.042 284.954 343.052 298.602 340.479 302.203C331.332 314.823 321.541 324.35 309.177 334.264C291.269 348.55 267.067 359.755 243.608 364.776C234.376 366.785 224.979 367.947 215.535 368.248C210.271 368.505 205.593 368.505 205.101 373.912C205.016 374.942 205.169 375.978 205.549 376.939C205.93 377.9 206.527 378.761 207.294 379.453C209.096 380.868 211.804 380.739 214.506 380.739C253.925 379.453 284.455 366.448 310.09 348.941C316.657 344.435 322.196 339.542 327.735 334.913L339.461 322.936C340.748 321.393 342.035 320.107 343.321 318.435C346.287 314.829 361.745 294.873 362.388 289.981C363.031 285.217 358.265 281.213 353.755 283.551L353.744 283.539Z" fill="white"/>
<path fill-rule="evenodd" clip-rule="evenodd" d="M172.758 34.9363C150.089 39.7002 130.508 48.4563 112.085 60.5559C103.452 66.2199 98.8143 70.5979 91.8603 76.3905C90.3163 77.6765 89.1582 78.5825 87.8657 79.8977C74.7297 93.1546 66.226 103.974 56.4354 120.814C55.2657 122.614 52.0548 128.278 52.1834 130.751C52.1834 134.843 56.1779 137.83 60.5586 136.286C63.6525 135.258 64.8105 131.394 66.6119 128.045C68.2846 124.83 70.0918 121.995 71.8757 119.031C95.0116 82.6544 131.587 56.8818 173.641 47.3223C177.636 46.4222 181.245 45.3934 181.245 40.6295C181.116 36.1229 177.507 33.9368 172.741 34.9655L172.758 34.9363Z" fill="white"/>
<path fill-rule="evenodd" clip-rule="evenodd" d="M289.725 53.325C286.631 54.6109 284.701 58.0888 286.76 61.9467C287.93 64.1386 292.17 65.9389 294.878 67.6107C304.82 73.9235 306.856 75.981 314.974 82.288C316.389 83.3226 317.313 84.4799 318.582 85.5087C319.918 86.5185 321.166 87.6389 322.314 88.858C328.496 95.6794 332.362 98.9001 338.544 107.136C351.133 123.646 360.487 142.385 366.114 162.367C368.044 169.317 368.301 181.037 376.934 178.202C384.016 175.864 379.507 164.425 377.706 158.118C371.138 135.076 359.417 112.286 344.474 94.7792C337.385 86.5375 335.069 84.3513 327.724 77.0098C321.799 70.96 307.885 61.0465 299.902 56.2826C297.194 54.6109 293.591 51.6474 289.725 53.325V53.325Z" fill="white"/>
<path fill-rule="evenodd" clip-rule="evenodd" d="M230.209 175.911C213.336 177.711 203.417 194.961 209.599 209.895C210.886 213.116 212.307 214.145 213.98 217.365L225.829 240.162C226.998 242.739 228.022 245.568 230.595 246.86C231.934 247.522 233.467 247.678 234.912 247.299C236.357 246.92 237.615 246.031 238.456 244.797C240.643 241.711 239.099 239.133 237.684 236.298L221.84 205.529C214.366 192.015 234.333 181.563 242.579 193.172C244.407 195.755 245.208 198.925 244.827 202.066C244.445 205.207 242.908 208.093 240.515 210.164C238.327 211.841 235.619 212.613 234.976 216.091C234.75 217.6 235.084 219.139 235.914 220.419C236.745 221.699 238.015 222.631 239.485 223.041C246.182 224.713 260.224 211.97 256.744 195.358C254.405 184.416 243.737 174.631 230.209 175.923V175.911Z" fill="white"/>
<path fill-rule="evenodd" clip-rule="evenodd" d="M43.041 239.378C36.0812 241.827 39.9471 250.835 41.8713 256.756C48.4451 278.003 60.9376 302.46 75.2375 318.3C86.1861 330.529 92.2395 337.221 106.025 347.006C116.33 354.476 119.032 345.334 118.003 341.985C117.231 339.285 114.008 337.607 111.949 336.064C104.096 330.189 96.808 323.594 90.1806 316.366C89.1512 315.197 88.2448 314.565 87.2154 313.408C75.2375 298.473 68.0204 289.203 59.651 269.633C57.1801 263.937 55.0724 258.089 53.3403 252.127C51.7904 246.328 50.8897 236.678 43.035 239.378H43.041Z" fill="white"/>
<path fill-rule="evenodd" clip-rule="evenodd" d="M288.695 143.464C280.32 146.813 288.695 157.884 293.847 168.183C301.45 183.118 279.811 197.795 270.014 177.197C268.084 172.947 265.762 169.083 263.581 164.834C259.843 157.235 253.533 160.59 252.112 163.419C249.772 167.669 254.048 173.204 255.978 176.811C261.13 186.467 263.195 193.288 272.985 197.409C293.853 206.423 315.365 184.918 305.574 163.934C303.773 159.813 301.322 155.441 299.263 151.448C297.199 147.585 295.011 140.892 288.701 143.464H288.695Z" fill="white"/>
<path fill-rule="evenodd" clip-rule="evenodd" d="M188.86 195.475C182.035 198.567 169.794 204.488 164.881 209.381C150.33 224.187 160.635 252.255 184.181 251.466C191.656 251.209 204.277 244.002 210.717 240.395C217.033 236.795 214.84 230.353 210.845 228.81C204.92 226.367 192.042 238.209 184.567 238.981C173.233 240.15 166.665 227.781 173.104 218.64C176.455 213.747 194.229 208.212 196.423 204.348C199.639 198.941 194.358 193.02 188.819 195.463L188.86 195.475Z" fill="white"/>
<path fill-rule="evenodd" clip-rule="evenodd" d="M198.778 211.83C194.398 212.858 186.414 218.008 181.648 220.194C173.272 224.186 177.524 233.843 184.478 232.428C186.414 232.042 198.907 225.344 201.358 224.058C210.885 219.037 204.317 210.409 198.778 211.83V211.83Z" fill="white"/>
<path fill-rule="evenodd" clip-rule="evenodd" d="M272.85 151.706C271.259 152.104 269.884 153.106 269.019 154.499C268.153 155.892 267.864 157.568 268.212 159.17C268.599 160.976 271.558 165.997 272.458 167.798C276.324 174.876 277.874 182.089 284.571 180.418C286.113 180.003 287.432 179.005 288.25 177.634C289.068 176.264 289.32 174.629 288.952 173.076C288.437 171.147 281.863 159.17 280.448 156.341C279.032 153.635 277.225 150.677 272.845 151.706H272.85Z" fill="white"/>
</svg>
