<svg width="481" height="66" viewBox="0 0 481 66" fill="none" xmlns="http://www.w3.org/2000/svg">
<g filter="url(#filter0_d_498_33)">
<rect x="4.6167" width="472" height="58" rx="29" fill="#5B67AE"/>
</g>
<path d="M210.226 37V19.5455H213.917V33.9574H221.4V37H210.226ZM229.69 37.2557C228.366 37.2557 227.221 36.9744 226.255 36.4119C225.295 35.8437 224.554 35.054 224.031 34.0426C223.508 33.0256 223.247 31.8466 223.247 30.5057C223.247 29.1534 223.508 27.9716 224.031 26.9602C224.554 25.9432 225.295 25.1534 226.255 24.5909C227.221 24.0227 228.366 23.7386 229.69 23.7386C231.014 23.7386 232.156 24.0227 233.116 24.5909C234.082 25.1534 234.827 25.9432 235.349 26.9602C235.872 27.9716 236.133 29.1534 236.133 30.5057C236.133 31.8466 235.872 33.0256 235.349 34.0426C234.827 35.054 234.082 35.8437 233.116 36.4119C232.156 36.9744 231.014 37.2557 229.69 37.2557ZM229.707 34.4432C230.309 34.4432 230.812 34.2727 231.216 33.9318C231.619 33.5852 231.923 33.1136 232.128 32.517C232.338 31.9205 232.443 31.2415 232.443 30.4801C232.443 29.7188 232.338 29.0398 232.128 28.4432C231.923 27.8466 231.619 27.375 231.216 27.0284C230.812 26.6818 230.309 26.5085 229.707 26.5085C229.099 26.5085 228.588 26.6818 228.173 27.0284C227.764 27.375 227.454 27.8466 227.244 28.4432C227.04 29.0398 226.937 29.7188 226.937 30.4801C226.937 31.2415 227.04 31.9205 227.244 32.517C227.454 33.1136 227.764 33.5852 228.173 33.9318C228.588 34.2727 229.099 34.4432 229.707 34.4432ZM244.392 42.1818C243.216 42.1818 242.207 42.0199 241.366 41.696C240.531 41.3778 239.866 40.9432 239.372 40.392C238.878 39.8409 238.557 39.2216 238.409 38.5341L241.767 38.0824C241.869 38.3438 242.031 38.5881 242.253 38.8153C242.474 39.0426 242.767 39.2244 243.13 39.3608C243.5 39.5028 243.949 39.5739 244.477 39.5739C245.267 39.5739 245.917 39.3807 246.429 38.9943C246.946 38.6136 247.204 37.9744 247.204 37.0767V34.6818H247.051C246.892 35.0455 246.653 35.3892 246.335 35.7131C246.017 36.0369 245.608 36.3011 245.108 36.5057C244.608 36.7102 244.011 36.8125 243.318 36.8125C242.335 36.8125 241.44 36.5852 240.633 36.1307C239.832 35.6705 239.193 34.9687 238.716 34.0256C238.244 33.0767 238.008 31.8778 238.008 30.429C238.008 28.946 238.25 27.7074 238.733 26.7131C239.216 25.7187 239.858 24.9744 240.659 24.4801C241.466 23.9858 242.349 23.7386 243.309 23.7386C244.042 23.7386 244.656 23.8636 245.15 24.1136C245.645 24.358 246.042 24.6648 246.344 25.0341C246.65 25.3977 246.886 25.7557 247.051 26.108H247.187V23.9091H250.792V37.1278C250.792 38.2415 250.52 39.1733 249.974 39.9233C249.429 40.6733 248.673 41.2358 247.707 41.6108C246.747 41.9915 245.642 42.1818 244.392 42.1818ZM244.469 34.0852C245.054 34.0852 245.548 33.9403 245.952 33.6506C246.361 33.3551 246.673 32.9347 246.889 32.3892C247.111 31.8381 247.221 31.179 247.221 30.4119C247.221 29.6449 247.113 28.9801 246.898 28.4176C246.682 27.8494 246.369 27.4091 245.96 27.0966C245.551 26.7841 245.054 26.6278 244.469 26.6278C243.872 26.6278 243.369 26.7898 242.96 27.1136C242.551 27.4318 242.241 27.875 242.031 28.4432C241.821 29.0114 241.716 29.6676 241.716 30.4119C241.716 31.1676 241.821 31.821 242.031 32.3722C242.247 32.9176 242.557 33.3409 242.96 33.642C243.369 33.9375 243.872 34.0852 244.469 34.0852ZM253.682 37V23.9091H257.312V37H253.682ZM255.505 22.2216C254.966 22.2216 254.503 22.0426 254.116 21.6847C253.736 21.321 253.545 20.8864 253.545 20.3807C253.545 19.8807 253.736 19.4517 254.116 19.0938C254.503 18.7301 254.966 18.5483 255.505 18.5483C256.045 18.5483 256.505 18.7301 256.886 19.0938C257.273 19.4517 257.466 19.8807 257.466 20.3807C257.466 20.8864 257.273 21.321 256.886 21.6847C256.505 22.0426 256.045 22.2216 255.505 22.2216ZM263.851 29.4318V37H260.221V23.9091H263.681V26.2188H263.834C264.124 25.4574 264.61 24.8551 265.292 24.4119C265.974 23.9631 266.8 23.7386 267.772 23.7386C268.681 23.7386 269.474 23.9375 270.15 24.3352C270.826 24.733 271.351 25.3011 271.726 26.0398C272.101 26.7727 272.289 27.6477 272.289 28.6648V37H268.658V29.3125C268.664 28.5114 268.459 27.8864 268.045 27.4375C267.63 26.983 267.059 26.7557 266.331 26.7557C265.843 26.7557 265.411 26.8608 265.036 27.071C264.667 27.2812 264.377 27.5881 264.167 27.9915C263.962 28.3892 263.857 28.8693 263.851 29.4318Z" fill="white"/>
<defs>
<filter id="filter0_d_498_33" x="0.616699" y="0" width="480" height="66" filterUnits="userSpaceOnUse" color-interpolation-filters="sRGB">
<feFlood flood-opacity="0" result="BackgroundImageFix"/>
<feColorMatrix in="SourceAlpha" type="matrix" values="0 0 0 0 0 0 0 0 0 0 0 0 0 0 0 0 0 0 127 0" result="hardAlpha"/>
<feOffset dy="4"/>
<feGaussianBlur stdDeviation="2"/>
<feComposite in2="hardAlpha" operator="out"/>
<feColorMatrix type="matrix" values="0 0 0 0 0 0 0 0 0 0 0 0 0 0 0 0 0 0 0.15 0"/>
<feBlend mode="normal" in2="BackgroundImageFix" result="effect1_dropShadow_498_33"/>
<feBlend mode="normal" in="SourceGraphic" in2="effect1_dropShadow_498_33" result="shape"/>
</filter>
</defs>
</svg>
