<svg width="606" height="565" viewBox="0 0 606 565" fill="none" xmlns="http://www.w3.org/2000/svg">
<g filter="url(#filter0_d_498_27)">
<rect x="8" width="590" height="217" rx="40" fill="#1C0D46"/>
<rect x="8" y="112" width="590" height="437" rx="27" fill="white"/>
<g filter="url(#filter1_d_498_27)">
<rect x="67.6167" y="378" width="472" height="58" rx="29" fill="#5B67AE"/>
</g>
<path d="M273.226 415V397.545H276.917V411.957H284.4V415H273.226ZM292.69 415.256C291.366 415.256 290.221 414.974 289.255 414.412C288.295 413.844 287.554 413.054 287.031 412.043C286.508 411.026 286.247 409.847 286.247 408.506C286.247 407.153 286.508 405.972 287.031 404.96C287.554 403.943 288.295 403.153 289.255 402.591C290.221 402.023 291.366 401.739 292.69 401.739C294.014 401.739 295.156 402.023 296.116 402.591C297.082 403.153 297.827 403.943 298.349 404.96C298.872 405.972 299.133 407.153 299.133 408.506C299.133 409.847 298.872 411.026 298.349 412.043C297.827 413.054 297.082 413.844 296.116 414.412C295.156 414.974 294.014 415.256 292.69 415.256ZM292.707 412.443C293.309 412.443 293.812 412.273 294.216 411.932C294.619 411.585 294.923 411.114 295.128 410.517C295.338 409.92 295.443 409.241 295.443 408.48C295.443 407.719 295.338 407.04 295.128 406.443C294.923 405.847 294.619 405.375 294.216 405.028C293.812 404.682 293.309 404.509 292.707 404.509C292.099 404.509 291.588 404.682 291.173 405.028C290.764 405.375 290.454 405.847 290.244 406.443C290.04 407.04 289.937 407.719 289.937 408.48C289.937 409.241 290.04 409.92 290.244 410.517C290.454 411.114 290.764 411.585 291.173 411.932C291.588 412.273 292.099 412.443 292.707 412.443ZM307.392 420.182C306.216 420.182 305.207 420.02 304.366 419.696C303.531 419.378 302.866 418.943 302.372 418.392C301.878 417.841 301.557 417.222 301.409 416.534L304.767 416.082C304.869 416.344 305.031 416.588 305.253 416.815C305.474 417.043 305.767 417.224 306.13 417.361C306.5 417.503 306.949 417.574 307.477 417.574C308.267 417.574 308.917 417.381 309.429 416.994C309.946 416.614 310.204 415.974 310.204 415.077V412.682H310.051C309.892 413.045 309.653 413.389 309.335 413.713C309.017 414.037 308.608 414.301 308.108 414.506C307.608 414.71 307.011 414.812 306.318 414.812C305.335 414.812 304.44 414.585 303.633 414.131C302.832 413.67 302.193 412.969 301.716 412.026C301.244 411.077 301.008 409.878 301.008 408.429C301.008 406.946 301.25 405.707 301.733 404.713C302.216 403.719 302.858 402.974 303.659 402.48C304.466 401.986 305.349 401.739 306.309 401.739C307.042 401.739 307.656 401.864 308.15 402.114C308.645 402.358 309.042 402.665 309.344 403.034C309.65 403.398 309.886 403.756 310.051 404.108H310.187V401.909H313.792V415.128C313.792 416.241 313.52 417.173 312.974 417.923C312.429 418.673 311.673 419.236 310.707 419.611C309.747 419.991 308.642 420.182 307.392 420.182ZM307.469 412.085C308.054 412.085 308.548 411.94 308.952 411.651C309.361 411.355 309.673 410.935 309.889 410.389C310.111 409.838 310.221 409.179 310.221 408.412C310.221 407.645 310.113 406.98 309.898 406.418C309.682 405.849 309.369 405.409 308.96 405.097C308.551 404.784 308.054 404.628 307.469 404.628C306.872 404.628 306.369 404.79 305.96 405.114C305.551 405.432 305.241 405.875 305.031 406.443C304.821 407.011 304.716 407.668 304.716 408.412C304.716 409.168 304.821 409.821 305.031 410.372C305.247 410.918 305.557 411.341 305.96 411.642C306.369 411.937 306.872 412.085 307.469 412.085ZM316.682 415V401.909H320.312V415H316.682ZM318.505 400.222C317.966 400.222 317.503 400.043 317.116 399.685C316.736 399.321 316.545 398.886 316.545 398.381C316.545 397.881 316.736 397.452 317.116 397.094C317.503 396.73 317.966 396.548 318.505 396.548C319.045 396.548 319.505 396.73 319.886 397.094C320.273 397.452 320.466 397.881 320.466 398.381C320.466 398.886 320.273 399.321 319.886 399.685C319.505 400.043 319.045 400.222 318.505 400.222ZM326.851 407.432V415H323.221V401.909H326.681V404.219H326.834C327.124 403.457 327.61 402.855 328.292 402.412C328.974 401.963 329.8 401.739 330.772 401.739C331.681 401.739 332.474 401.938 333.15 402.335C333.826 402.733 334.351 403.301 334.726 404.04C335.101 404.773 335.289 405.648 335.289 406.665V415H331.658V407.312C331.664 406.511 331.459 405.886 331.045 405.438C330.63 404.983 330.059 404.756 329.331 404.756C328.843 404.756 328.411 404.861 328.036 405.071C327.667 405.281 327.377 405.588 327.167 405.991C326.962 406.389 326.857 406.869 326.851 407.432Z" fill="white"/>
<path d="M272.412 485.761L270.196 485.898C270.158 485.708 270.077 485.538 269.952 485.386C269.827 485.231 269.662 485.108 269.457 485.017C269.257 484.922 269.016 484.875 268.736 484.875C268.361 484.875 268.044 484.955 267.787 485.114C267.529 485.269 267.4 485.477 267.4 485.739C267.4 485.947 267.484 486.123 267.65 486.267C267.817 486.411 268.103 486.527 268.508 486.614L270.088 486.932C270.936 487.106 271.569 487.386 271.986 487.773C272.402 488.159 272.611 488.667 272.611 489.295C272.611 489.867 272.442 490.369 272.105 490.801C271.772 491.233 271.313 491.57 270.73 491.812C270.15 492.051 269.482 492.17 268.724 492.17C267.569 492.17 266.649 491.93 265.963 491.449C265.281 490.964 264.882 490.305 264.764 489.472L267.145 489.347C267.217 489.699 267.391 489.968 267.668 490.153C267.944 490.335 268.298 490.426 268.73 490.426C269.154 490.426 269.495 490.345 269.753 490.182C270.014 490.015 270.147 489.801 270.15 489.54C270.147 489.32 270.054 489.14 269.872 489C269.69 488.856 269.41 488.746 269.031 488.67L267.52 488.369C266.668 488.199 266.033 487.903 265.616 487.483C265.204 487.062 264.997 486.527 264.997 485.875C264.997 485.314 265.149 484.831 265.452 484.426C265.758 484.021 266.188 483.708 266.741 483.489C267.298 483.269 267.95 483.159 268.696 483.159C269.798 483.159 270.666 483.392 271.298 483.858C271.935 484.324 272.306 484.958 272.412 485.761ZM274.135 492V483.273H276.555V492H274.135ZM275.351 482.148C274.991 482.148 274.682 482.028 274.425 481.79C274.171 481.547 274.044 481.258 274.044 480.92C274.044 480.587 274.171 480.301 274.425 480.062C274.682 479.82 274.991 479.699 275.351 479.699C275.711 479.699 276.017 479.82 276.271 480.062C276.529 480.301 276.658 480.587 276.658 480.92C276.658 481.258 276.529 481.547 276.271 481.79C276.017 482.028 275.711 482.148 275.351 482.148ZM282.426 495.455C281.642 495.455 280.97 495.347 280.409 495.131C279.852 494.919 279.409 494.629 279.079 494.261C278.75 493.894 278.536 493.481 278.437 493.023L280.676 492.722C280.744 492.896 280.852 493.059 281 493.21C281.148 493.362 281.343 493.483 281.585 493.574C281.831 493.669 282.131 493.716 282.483 493.716C283.009 493.716 283.443 493.587 283.784 493.33C284.129 493.076 284.301 492.65 284.301 492.051V490.455H284.199C284.093 490.697 283.934 490.926 283.722 491.142C283.509 491.358 283.237 491.534 282.903 491.67C282.57 491.807 282.172 491.875 281.71 491.875C281.055 491.875 280.458 491.723 279.92 491.42C279.386 491.114 278.96 490.646 278.642 490.017C278.328 489.384 278.17 488.585 278.17 487.619C278.17 486.631 278.331 485.805 278.653 485.142C278.975 484.479 279.403 483.983 279.937 483.653C280.475 483.324 281.064 483.159 281.704 483.159C282.193 483.159 282.602 483.242 282.932 483.409C283.261 483.572 283.526 483.777 283.727 484.023C283.932 484.265 284.089 484.504 284.199 484.739H284.29V483.273H286.693V492.085C286.693 492.828 286.511 493.449 286.148 493.949C285.784 494.449 285.28 494.824 284.636 495.074C283.996 495.328 283.259 495.455 282.426 495.455ZM282.477 490.057C282.867 490.057 283.197 489.96 283.466 489.767C283.739 489.57 283.947 489.29 284.091 488.926C284.239 488.559 284.312 488.119 284.312 487.608C284.312 487.097 284.24 486.653 284.097 486.278C283.953 485.9 283.744 485.606 283.472 485.398C283.199 485.189 282.867 485.085 282.477 485.085C282.079 485.085 281.744 485.193 281.472 485.409C281.199 485.621 280.992 485.917 280.852 486.295C280.712 486.674 280.642 487.112 280.642 487.608C280.642 488.112 280.712 488.547 280.852 488.915C280.996 489.278 281.203 489.561 281.472 489.761C281.744 489.958 282.079 490.057 282.477 490.057ZM291.04 486.955V492H288.619V483.273H290.926V484.812H291.028C291.222 484.305 291.545 483.903 292 483.608C292.454 483.309 293.006 483.159 293.653 483.159C294.259 483.159 294.788 483.292 295.239 483.557C295.689 483.822 296.04 484.201 296.29 484.693C296.54 485.182 296.665 485.765 296.665 486.443V492H294.244V486.875C294.248 486.341 294.112 485.924 293.835 485.625C293.559 485.322 293.178 485.17 292.693 485.17C292.367 485.17 292.079 485.241 291.829 485.381C291.583 485.521 291.39 485.725 291.25 485.994C291.114 486.259 291.043 486.58 291.04 486.955ZM307.872 488.284V483.273H310.293V492H307.969V490.415H307.878C307.681 490.926 307.353 491.337 306.895 491.648C306.44 491.958 305.885 492.114 305.23 492.114C304.647 492.114 304.133 491.981 303.69 491.716C303.247 491.451 302.9 491.074 302.65 490.585C302.404 490.097 302.279 489.511 302.275 488.83V483.273H304.696V488.398C304.7 488.913 304.838 489.32 305.111 489.619C305.383 489.919 305.749 490.068 306.207 490.068C306.499 490.068 306.772 490.002 307.025 489.869C307.279 489.733 307.484 489.532 307.639 489.267C307.798 489.002 307.876 488.674 307.872 488.284ZM312.229 495.273V483.273H314.615V484.739H314.723C314.829 484.504 314.982 484.265 315.183 484.023C315.388 483.777 315.653 483.572 315.979 483.409C316.308 483.242 316.717 483.159 317.206 483.159C317.842 483.159 318.429 483.326 318.967 483.659C319.505 483.989 319.935 484.487 320.257 485.153C320.579 485.816 320.74 486.648 320.74 487.648C320.74 488.621 320.583 489.443 320.268 490.114C319.958 490.78 319.534 491.286 318.996 491.631C318.462 491.972 317.863 492.142 317.2 492.142C316.73 492.142 316.331 492.064 316.001 491.909C315.676 491.754 315.409 491.559 315.2 491.324C314.992 491.085 314.833 490.845 314.723 490.602H314.649V495.273H312.229ZM314.598 487.636C314.598 488.155 314.67 488.608 314.814 488.994C314.958 489.381 315.166 489.682 315.439 489.898C315.712 490.11 316.043 490.216 316.433 490.216C316.827 490.216 317.16 490.108 317.433 489.892C317.706 489.672 317.912 489.369 318.052 488.983C318.196 488.593 318.268 488.144 318.268 487.636C318.268 487.133 318.198 486.689 318.058 486.307C317.918 485.924 317.712 485.625 317.439 485.409C317.166 485.193 316.831 485.085 316.433 485.085C316.039 485.085 315.706 485.189 315.433 485.398C315.164 485.606 314.958 485.902 314.814 486.284C314.67 486.667 314.598 487.117 314.598 487.636Z" fill="#268AFF"/>
<path d="M226.66 473.182C225.933 473.182 225.291 472.998 224.734 472.631C224.177 472.259 223.742 471.737 223.427 471.062C223.113 470.384 222.956 469.583 222.956 468.659C222.956 467.742 223.113 466.947 223.427 466.273C223.742 465.598 224.179 465.078 224.74 464.71C225.301 464.343 225.948 464.159 226.683 464.159C227.251 464.159 227.7 464.254 228.03 464.443C228.363 464.629 228.617 464.841 228.791 465.08C228.969 465.314 229.107 465.508 229.206 465.659H229.32V461.364H230.66V473H229.365V471.659H229.206C229.107 471.818 228.967 472.019 228.785 472.261C228.604 472.5 228.344 472.714 228.007 472.903C227.67 473.089 227.221 473.182 226.66 473.182ZM226.842 471.977C227.38 471.977 227.835 471.837 228.206 471.557C228.577 471.273 228.859 470.881 229.052 470.381C229.246 469.877 229.342 469.295 229.342 468.636C229.342 467.985 229.248 467.415 229.058 466.926C228.869 466.434 228.588 466.051 228.217 465.778C227.846 465.502 227.388 465.364 226.842 465.364C226.274 465.364 225.801 465.509 225.422 465.801C225.047 466.089 224.765 466.481 224.575 466.977C224.39 467.47 224.297 468.023 224.297 468.636C224.297 469.258 224.391 469.822 224.581 470.33C224.774 470.833 225.058 471.235 225.433 471.534C225.812 471.83 226.282 471.977 226.842 471.977ZM236.848 473.182C236.06 473.182 235.369 472.994 234.774 472.619C234.183 472.244 233.721 471.72 233.388 471.045C233.058 470.371 232.893 469.583 232.893 468.682C232.893 467.773 233.058 466.979 233.388 466.301C233.721 465.623 234.183 465.097 234.774 464.722C235.369 464.347 236.06 464.159 236.848 464.159C237.636 464.159 238.325 464.347 238.916 464.722C239.511 465.097 239.973 465.623 240.302 466.301C240.636 466.979 240.802 467.773 240.802 468.682C240.802 469.583 240.636 470.371 240.302 471.045C239.973 471.72 239.511 472.244 238.916 472.619C238.325 472.994 237.636 473.182 236.848 473.182ZM236.848 471.977C237.446 471.977 237.939 471.824 238.325 471.517C238.712 471.21 238.998 470.807 239.183 470.307C239.369 469.807 239.462 469.265 239.462 468.682C239.462 468.098 239.369 467.555 239.183 467.051C238.998 466.547 238.712 466.14 238.325 465.83C237.939 465.519 237.446 465.364 236.848 465.364C236.249 465.364 235.757 465.519 235.371 465.83C234.984 466.14 234.698 466.547 234.513 467.051C234.327 467.555 234.234 468.098 234.234 468.682C234.234 469.265 234.327 469.807 234.513 470.307C234.698 470.807 234.984 471.21 235.371 471.517C235.757 471.824 236.249 471.977 236.848 471.977ZM244.19 467.75V473H242.849V464.273H244.145V465.636H244.258C244.463 465.193 244.774 464.837 245.19 464.568C245.607 464.295 246.145 464.159 246.804 464.159C247.395 464.159 247.912 464.28 248.355 464.523C248.798 464.761 249.143 465.125 249.389 465.614C249.635 466.098 249.758 466.712 249.758 467.455V473H248.418V467.545C248.418 466.86 248.239 466.326 247.883 465.943C247.527 465.557 247.039 465.364 246.418 465.364C245.989 465.364 245.607 465.456 245.27 465.642C244.936 465.828 244.673 466.098 244.48 466.455C244.287 466.811 244.19 467.242 244.19 467.75ZM253.391 461.364V462.386C253.391 462.697 253.334 463.028 253.22 463.381C253.11 463.729 252.947 464.068 252.731 464.398C252.519 464.723 252.262 465.008 251.959 465.25L251.231 464.659C251.47 464.318 251.677 463.964 251.851 463.597C252.029 463.225 252.118 462.83 252.118 462.409V461.364H253.391ZM259.192 464.273V465.409H254.669V464.273H259.192ZM255.987 462.182H257.328V470.5C257.328 470.879 257.383 471.163 257.493 471.352C257.606 471.538 257.75 471.663 257.925 471.727C258.103 471.788 258.29 471.818 258.487 471.818C258.635 471.818 258.756 471.811 258.851 471.795C258.945 471.777 259.021 471.761 259.078 471.75L259.351 472.955C259.26 472.989 259.133 473.023 258.97 473.057C258.807 473.095 258.601 473.114 258.351 473.114C257.972 473.114 257.601 473.032 257.237 472.869C256.877 472.706 256.578 472.458 256.339 472.125C256.105 471.792 255.987 471.371 255.987 470.864V462.182ZM267.05 467.75V473H265.709V461.364H267.05V465.636H267.163C267.368 465.186 267.675 464.828 268.084 464.562C268.497 464.294 269.046 464.159 269.731 464.159C270.326 464.159 270.847 464.278 271.294 464.517C271.741 464.752 272.088 465.114 272.334 465.602C272.584 466.087 272.709 466.705 272.709 467.455V473H271.368V467.545C271.368 466.852 271.188 466.316 270.828 465.938C270.472 465.555 269.978 465.364 269.345 465.364C268.906 465.364 268.512 465.456 268.163 465.642C267.819 465.828 267.546 466.098 267.345 466.455C267.148 466.811 267.05 467.242 267.05 467.75ZM277.73 473.205C277.177 473.205 276.675 473.1 276.224 472.892C275.774 472.68 275.416 472.375 275.15 471.977C274.885 471.576 274.753 471.091 274.753 470.523C274.753 470.023 274.851 469.617 275.048 469.307C275.245 468.992 275.508 468.746 275.838 468.568C276.168 468.39 276.531 468.258 276.929 468.17C277.33 468.08 277.734 468.008 278.139 467.955C278.669 467.886 279.099 467.835 279.429 467.801C279.762 467.763 280.005 467.701 280.156 467.614C280.311 467.527 280.389 467.375 280.389 467.159V467.114C280.389 466.553 280.236 466.117 279.929 465.807C279.626 465.496 279.166 465.341 278.548 465.341C277.908 465.341 277.406 465.481 277.043 465.761C276.679 466.042 276.423 466.341 276.275 466.659L275.003 466.205C275.23 465.674 275.533 465.261 275.912 464.966C276.294 464.667 276.711 464.458 277.162 464.341C277.616 464.22 278.063 464.159 278.503 464.159C278.783 464.159 279.105 464.193 279.469 464.261C279.836 464.326 280.19 464.46 280.531 464.665C280.876 464.869 281.162 465.178 281.389 465.591C281.616 466.004 281.73 466.557 281.73 467.25V473H280.389V471.818H280.321C280.23 472.008 280.079 472.21 279.866 472.426C279.654 472.642 279.372 472.826 279.02 472.977C278.668 473.129 278.238 473.205 277.73 473.205ZM277.935 472C278.465 472 278.912 471.896 279.275 471.688C279.643 471.479 279.919 471.21 280.105 470.881C280.294 470.551 280.389 470.205 280.389 469.841V468.614C280.332 468.682 280.207 468.744 280.014 468.801C279.825 468.854 279.605 468.902 279.355 468.943C279.109 468.981 278.868 469.015 278.633 469.045C278.402 469.072 278.215 469.095 278.071 469.114C277.722 469.159 277.397 469.233 277.094 469.335C276.794 469.434 276.552 469.583 276.366 469.784C276.185 469.981 276.094 470.25 276.094 470.591C276.094 471.057 276.266 471.409 276.611 471.648C276.959 471.883 277.4 472 277.935 472ZM291.001 464.273L287.774 473H286.41L283.183 464.273H284.638L287.047 471.227H287.138L289.547 464.273H291.001ZM296.118 473.182C295.277 473.182 294.552 472.996 293.942 472.625C293.336 472.25 292.868 471.727 292.538 471.057C292.213 470.383 292.05 469.598 292.05 468.705C292.05 467.811 292.213 467.023 292.538 466.341C292.868 465.655 293.326 465.121 293.913 464.739C294.504 464.352 295.194 464.159 295.981 464.159C296.436 464.159 296.885 464.235 297.328 464.386C297.771 464.538 298.175 464.784 298.538 465.125C298.902 465.462 299.192 465.909 299.408 466.466C299.623 467.023 299.731 467.708 299.731 468.523V469.091H293.004V467.932H298.368C298.368 467.439 298.269 467 298.072 466.614C297.879 466.227 297.603 465.922 297.243 465.699C296.887 465.475 296.466 465.364 295.981 465.364C295.447 465.364 294.985 465.496 294.595 465.761C294.209 466.023 293.911 466.364 293.703 466.784C293.495 467.205 293.391 467.655 293.391 468.136V468.909C293.391 469.568 293.504 470.127 293.731 470.585C293.963 471.04 294.283 471.386 294.692 471.625C295.101 471.86 295.576 471.977 296.118 471.977C296.47 471.977 296.788 471.928 297.072 471.83C297.36 471.727 297.608 471.576 297.817 471.375C298.025 471.17 298.186 470.917 298.3 470.614L299.595 470.977C299.459 471.417 299.23 471.803 298.908 472.136C298.586 472.466 298.188 472.723 297.714 472.909C297.241 473.091 296.709 473.182 296.118 473.182ZM308.839 473.205C308.286 473.205 307.784 473.1 307.334 472.892C306.883 472.68 306.525 472.375 306.26 471.977C305.995 471.576 305.862 471.091 305.862 470.523C305.862 470.023 305.961 469.617 306.158 469.307C306.355 468.992 306.618 468.746 306.947 468.568C307.277 468.39 307.641 468.258 308.038 468.17C308.44 468.08 308.843 468.008 309.248 467.955C309.779 467.886 310.209 467.835 310.538 467.801C310.872 467.763 311.114 467.701 311.266 467.614C311.421 467.527 311.498 467.375 311.498 467.159V467.114C311.498 466.553 311.345 466.117 311.038 465.807C310.735 465.496 310.275 465.341 309.658 465.341C309.017 465.341 308.516 465.481 308.152 465.761C307.788 466.042 307.533 466.341 307.385 466.659L306.112 466.205C306.339 465.674 306.642 465.261 307.021 464.966C307.404 464.667 307.82 464.458 308.271 464.341C308.726 464.22 309.173 464.159 309.612 464.159C309.892 464.159 310.214 464.193 310.578 464.261C310.945 464.326 311.3 464.46 311.641 464.665C311.985 464.869 312.271 465.178 312.498 465.591C312.726 466.004 312.839 466.557 312.839 467.25V473H311.498V471.818H311.43C311.339 472.008 311.188 472.21 310.976 472.426C310.764 472.642 310.481 472.826 310.129 472.977C309.777 473.129 309.347 473.205 308.839 473.205ZM309.044 472C309.574 472 310.021 471.896 310.385 471.688C310.752 471.479 311.029 471.21 311.214 470.881C311.404 470.551 311.498 470.205 311.498 469.841V468.614C311.442 468.682 311.317 468.744 311.123 468.801C310.934 468.854 310.714 468.902 310.464 468.943C310.218 468.981 309.978 469.015 309.743 469.045C309.512 469.072 309.324 469.095 309.18 469.114C308.832 469.159 308.506 469.233 308.203 469.335C307.904 469.434 307.661 469.583 307.476 469.784C307.294 469.981 307.203 470.25 307.203 470.591C307.203 471.057 307.375 471.409 307.72 471.648C308.069 471.883 308.51 472 309.044 472ZM316.628 467.75V473H315.287V464.273H316.582V465.636H316.696C316.9 465.193 317.211 464.837 317.628 464.568C318.044 464.295 318.582 464.159 319.241 464.159C319.832 464.159 320.349 464.28 320.793 464.523C321.236 464.761 321.58 465.125 321.827 465.614C322.073 466.098 322.196 466.712 322.196 467.455V473H320.855V467.545C320.855 466.86 320.677 466.326 320.321 465.943C319.965 465.557 319.476 465.364 318.855 465.364C318.427 465.364 318.044 465.456 317.707 465.642C317.374 465.828 317.111 466.098 316.918 466.455C316.724 466.811 316.628 467.242 316.628 467.75ZM331.714 473.205C331.161 473.205 330.659 473.1 330.209 472.892C329.758 472.68 329.4 472.375 329.135 471.977C328.87 471.576 328.737 471.091 328.737 470.523C328.737 470.023 328.836 469.617 329.033 469.307C329.23 468.992 329.493 468.746 329.822 468.568C330.152 468.39 330.516 468.258 330.913 468.17C331.315 468.08 331.718 468.008 332.123 467.955C332.654 467.886 333.084 467.835 333.413 467.801C333.747 467.763 333.989 467.701 334.141 467.614C334.296 467.527 334.373 467.375 334.373 467.159V467.114C334.373 466.553 334.22 466.117 333.913 465.807C333.61 465.496 333.15 465.341 332.533 465.341C331.892 465.341 331.391 465.481 331.027 465.761C330.663 466.042 330.408 466.341 330.26 466.659L328.987 466.205C329.214 465.674 329.517 465.261 329.896 464.966C330.279 464.667 330.695 464.458 331.146 464.341C331.601 464.22 332.048 464.159 332.487 464.159C332.767 464.159 333.089 464.193 333.453 464.261C333.82 464.326 334.175 464.46 334.516 464.665C334.86 464.869 335.146 465.178 335.373 465.591C335.601 466.004 335.714 466.557 335.714 467.25V473H334.373V471.818H334.305C334.214 472.008 334.063 472.21 333.851 472.426C333.639 472.642 333.356 472.826 333.004 472.977C332.652 473.129 332.222 473.205 331.714 473.205ZM331.919 472C332.449 472 332.896 471.896 333.26 471.688C333.627 471.479 333.904 471.21 334.089 470.881C334.279 470.551 334.373 470.205 334.373 469.841V468.614C334.317 468.682 334.192 468.744 333.998 468.801C333.809 468.854 333.589 468.902 333.339 468.943C333.093 468.981 332.853 469.015 332.618 469.045C332.387 469.072 332.199 469.095 332.055 469.114C331.707 469.159 331.381 469.233 331.078 469.335C330.779 469.434 330.536 469.583 330.351 469.784C330.169 469.981 330.078 470.25 330.078 470.591C330.078 471.057 330.25 471.409 330.595 471.648C330.944 471.883 331.385 472 331.919 472ZM341.707 473.182C340.889 473.182 340.185 472.989 339.594 472.602C339.003 472.216 338.548 471.684 338.23 471.006C337.912 470.328 337.753 469.553 337.753 468.682C337.753 467.795 337.916 467.013 338.241 466.335C338.571 465.653 339.029 465.121 339.616 464.739C340.207 464.352 340.897 464.159 341.685 464.159C342.298 464.159 342.851 464.273 343.344 464.5C343.836 464.727 344.239 465.045 344.554 465.455C344.868 465.864 345.063 466.341 345.139 466.886H343.798C343.696 466.489 343.469 466.136 343.116 465.83C342.768 465.519 342.298 465.364 341.707 465.364C341.185 465.364 340.726 465.5 340.332 465.773C339.942 466.042 339.637 466.422 339.418 466.915C339.202 467.403 339.094 467.977 339.094 468.636C339.094 469.311 339.2 469.898 339.412 470.398C339.628 470.898 339.931 471.286 340.321 471.562C340.715 471.839 341.177 471.977 341.707 471.977C342.056 471.977 342.372 471.917 342.656 471.795C342.94 471.674 343.181 471.5 343.378 471.273C343.575 471.045 343.715 470.773 343.798 470.455H345.139C345.063 470.97 344.876 471.434 344.577 471.847C344.281 472.256 343.889 472.581 343.4 472.824C342.916 473.062 342.351 473.182 341.707 473.182ZM350.645 473.182C349.827 473.182 349.122 472.989 348.531 472.602C347.94 472.216 347.486 471.684 347.168 471.006C346.849 470.328 346.69 469.553 346.69 468.682C346.69 467.795 346.853 467.013 347.179 466.335C347.508 465.653 347.967 465.121 348.554 464.739C349.145 464.352 349.834 464.159 350.622 464.159C351.236 464.159 351.789 464.273 352.281 464.5C352.774 464.727 353.177 465.045 353.491 465.455C353.806 465.864 354.001 466.341 354.077 466.886H352.736C352.633 466.489 352.406 466.136 352.054 465.83C351.705 465.519 351.236 465.364 350.645 465.364C350.122 465.364 349.664 465.5 349.27 465.773C348.88 466.042 348.575 466.422 348.355 466.915C348.139 467.403 348.031 467.977 348.031 468.636C348.031 469.311 348.137 469.898 348.349 470.398C348.565 470.898 348.868 471.286 349.258 471.562C349.652 471.839 350.114 471.977 350.645 471.977C350.993 471.977 351.31 471.917 351.594 471.795C351.878 471.674 352.118 471.5 352.315 471.273C352.512 471.045 352.652 470.773 352.736 470.455H354.077C354.001 470.97 353.813 471.434 353.514 471.847C353.219 472.256 352.827 472.581 352.338 472.824C351.853 473.062 351.289 473.182 350.645 473.182ZM359.582 473.182C358.794 473.182 358.103 472.994 357.508 472.619C356.918 472.244 356.455 471.72 356.122 471.045C355.793 470.371 355.628 469.583 355.628 468.682C355.628 467.773 355.793 466.979 356.122 466.301C356.455 465.623 356.918 465.097 357.508 464.722C358.103 464.347 358.794 464.159 359.582 464.159C360.37 464.159 361.06 464.347 361.65 464.722C362.245 465.097 362.707 465.623 363.037 466.301C363.37 466.979 363.537 467.773 363.537 468.682C363.537 469.583 363.37 470.371 363.037 471.045C362.707 471.72 362.245 472.244 361.65 472.619C361.06 472.994 360.37 473.182 359.582 473.182ZM359.582 471.977C360.181 471.977 360.673 471.824 361.06 471.517C361.446 471.21 361.732 470.807 361.918 470.307C362.103 469.807 362.196 469.265 362.196 468.682C362.196 468.098 362.103 467.555 361.918 467.051C361.732 466.547 361.446 466.14 361.06 465.83C360.673 465.519 360.181 465.364 359.582 465.364C358.984 465.364 358.491 465.519 358.105 465.83C357.719 466.14 357.433 466.547 357.247 467.051C357.061 467.555 356.969 468.098 356.969 468.682C356.969 469.265 357.061 469.807 357.247 470.307C357.433 470.807 357.719 471.21 358.105 471.517C358.491 471.824 358.984 471.977 359.582 471.977ZM371.084 469.432V464.273H372.425V473H371.084V471.523H370.993C370.788 471.966 370.47 472.343 370.038 472.653C369.606 472.96 369.061 473.114 368.402 473.114C367.856 473.114 367.372 472.994 366.947 472.756C366.523 472.513 366.19 472.15 365.947 471.665C365.705 471.176 365.584 470.561 365.584 469.818V464.273H366.925V469.727C366.925 470.364 367.103 470.871 367.459 471.25C367.819 471.629 368.277 471.818 368.834 471.818C369.167 471.818 369.506 471.733 369.851 471.562C370.199 471.392 370.491 471.131 370.726 470.778C370.964 470.426 371.084 469.977 371.084 469.432ZM376.222 467.75V473H374.881V464.273H376.176V465.636H376.29C376.494 465.193 376.805 464.837 377.222 464.568C377.638 464.295 378.176 464.159 378.835 464.159C379.426 464.159 379.943 464.28 380.386 464.523C380.829 464.761 381.174 465.125 381.42 465.614C381.667 466.098 381.79 466.712 381.79 467.455V473H380.449V467.545C380.449 466.86 380.271 466.326 379.915 465.943C379.559 465.557 379.07 465.364 378.449 465.364C378.021 465.364 377.638 465.456 377.301 465.642C376.968 465.828 376.704 466.098 376.511 466.455C376.318 466.811 376.222 467.242 376.222 467.75ZM388.035 464.273V465.409H383.513V464.273H388.035ZM384.831 462.182H386.172V470.5C386.172 470.879 386.227 471.163 386.337 471.352C386.45 471.538 386.594 471.663 386.768 471.727C386.946 471.788 387.134 471.818 387.331 471.818C387.479 471.818 387.6 471.811 387.695 471.795C387.789 471.777 387.865 471.761 387.922 471.75L388.195 472.955C388.104 472.989 387.977 473.023 387.814 473.057C387.651 473.095 387.445 473.114 387.195 473.114C386.816 473.114 386.445 473.032 386.081 472.869C385.721 472.706 385.422 472.458 385.183 472.125C384.948 471.792 384.831 471.371 384.831 470.864V462.182ZM391.802 469.727V469.659C391.81 468.936 391.886 468.36 392.03 467.932C392.174 467.504 392.378 467.157 392.643 466.892C392.909 466.627 393.227 466.383 393.598 466.159C393.821 466.023 394.022 465.862 394.2 465.676C394.378 465.487 394.518 465.269 394.621 465.023C394.727 464.777 394.78 464.504 394.78 464.205C394.78 463.833 394.693 463.511 394.518 463.239C394.344 462.966 394.111 462.756 393.82 462.608C393.528 462.46 393.204 462.386 392.848 462.386C392.537 462.386 392.238 462.451 391.95 462.58C391.662 462.708 391.422 462.911 391.229 463.188C391.035 463.464 390.924 463.826 390.893 464.273H389.462C389.492 463.629 389.659 463.078 389.962 462.619C390.268 462.161 390.672 461.811 391.172 461.568C391.676 461.326 392.234 461.205 392.848 461.205C393.515 461.205 394.094 461.337 394.587 461.602C395.083 461.867 395.465 462.231 395.734 462.693C396.007 463.155 396.143 463.682 396.143 464.273C396.143 464.689 396.079 465.066 395.95 465.403C395.825 465.741 395.643 466.042 395.405 466.307C395.17 466.572 394.886 466.807 394.552 467.011C394.219 467.22 393.952 467.439 393.751 467.67C393.551 467.898 393.405 468.169 393.314 468.483C393.223 468.797 393.174 469.189 393.166 469.659V469.727H391.802ZM392.53 473.091C392.249 473.091 392.009 472.991 391.808 472.79C391.607 472.589 391.507 472.348 391.507 472.068C391.507 471.788 391.607 471.547 391.808 471.347C392.009 471.146 392.249 471.045 392.53 471.045C392.81 471.045 393.051 471.146 393.251 471.347C393.452 471.547 393.552 471.788 393.552 472.068C393.552 472.254 393.505 472.424 393.41 472.58C393.32 472.735 393.196 472.86 393.041 472.955C392.89 473.045 392.719 473.091 392.53 473.091ZM328.323 486.75V492H326.982V480.364H328.323V484.636H328.437C328.641 484.186 328.948 483.828 329.357 483.562C329.77 483.294 330.319 483.159 331.005 483.159C331.6 483.159 332.12 483.278 332.567 483.517C333.014 483.752 333.361 484.114 333.607 484.602C333.857 485.087 333.982 485.705 333.982 486.455V492H332.641V486.545C332.641 485.852 332.461 485.316 332.101 484.938C331.745 484.555 331.251 484.364 330.619 484.364C330.179 484.364 329.785 484.456 329.437 484.642C329.092 484.828 328.819 485.098 328.619 485.455C328.422 485.811 328.323 486.242 328.323 486.75ZM340.094 492.182C339.253 492.182 338.528 491.996 337.918 491.625C337.312 491.25 336.844 490.727 336.515 490.057C336.189 489.383 336.026 488.598 336.026 487.705C336.026 486.811 336.189 486.023 336.515 485.341C336.844 484.655 337.303 484.121 337.89 483.739C338.481 483.352 339.17 483.159 339.958 483.159C340.413 483.159 340.861 483.235 341.305 483.386C341.748 483.538 342.151 483.784 342.515 484.125C342.878 484.462 343.168 484.909 343.384 485.466C343.6 486.023 343.708 486.708 343.708 487.523V488.091H336.981V486.932H342.344C342.344 486.439 342.246 486 342.049 485.614C341.856 485.227 341.579 484.922 341.219 484.699C340.863 484.475 340.443 484.364 339.958 484.364C339.424 484.364 338.962 484.496 338.572 484.761C338.185 485.023 337.888 485.364 337.68 485.784C337.471 486.205 337.367 486.655 337.367 487.136V487.909C337.367 488.568 337.481 489.127 337.708 489.585C337.939 490.04 338.259 490.386 338.668 490.625C339.077 490.86 339.553 490.977 340.094 490.977C340.447 490.977 340.765 490.928 341.049 490.83C341.337 490.727 341.585 490.576 341.793 490.375C342.002 490.17 342.163 489.917 342.276 489.614L343.572 489.977C343.435 490.417 343.206 490.803 342.884 491.136C342.562 491.466 342.164 491.723 341.691 491.909C341.217 492.091 340.685 492.182 340.094 492.182ZM345.748 492V483.273H347.043V484.591H347.134C347.293 484.159 347.581 483.809 347.998 483.54C348.414 483.271 348.884 483.136 349.407 483.136C349.505 483.136 349.628 483.138 349.776 483.142C349.924 483.146 350.036 483.152 350.111 483.159V484.523C350.066 484.511 349.962 484.494 349.799 484.472C349.64 484.445 349.471 484.432 349.293 484.432C348.869 484.432 348.49 484.521 348.157 484.699C347.827 484.873 347.566 485.116 347.373 485.426C347.183 485.733 347.089 486.083 347.089 486.477V492H345.748ZM355.094 492.182C354.253 492.182 353.528 491.996 352.918 491.625C352.312 491.25 351.844 490.727 351.515 490.057C351.189 489.383 351.026 488.598 351.026 487.705C351.026 486.811 351.189 486.023 351.515 485.341C351.844 484.655 352.303 484.121 352.89 483.739C353.481 483.352 354.17 483.159 354.958 483.159C355.413 483.159 355.861 483.235 356.305 483.386C356.748 483.538 357.151 483.784 357.515 484.125C357.878 484.462 358.168 484.909 358.384 485.466C358.6 486.023 358.708 486.708 358.708 487.523V488.091H351.981V486.932H357.344C357.344 486.439 357.246 486 357.049 485.614C356.856 485.227 356.579 484.922 356.219 484.699C355.863 484.475 355.443 484.364 354.958 484.364C354.424 484.364 353.962 484.496 353.572 484.761C353.185 485.023 352.888 485.364 352.68 485.784C352.471 486.205 352.367 486.655 352.367 487.136V487.909C352.367 488.568 352.481 489.127 352.708 489.585C352.939 490.04 353.259 490.386 353.668 490.625C354.077 490.86 354.553 490.977 355.094 490.977C355.447 490.977 355.765 490.928 356.049 490.83C356.337 490.727 356.585 490.576 356.793 490.375C357.002 490.17 357.163 489.917 357.276 489.614L358.572 489.977C358.435 490.417 358.206 490.803 357.884 491.136C357.562 491.466 357.164 491.723 356.691 491.909C356.217 492.091 355.685 492.182 355.094 492.182Z" fill="#656565"/>
<path d="M71.5077 285V267.545H78.0532C79.3941 267.545 80.5191 267.795 81.4282 268.295C82.343 268.795 83.0333 269.483 83.4992 270.358C83.9708 271.227 84.2066 272.216 84.2066 273.324C84.2066 274.443 83.9708 275.437 83.4992 276.307C83.0276 277.176 82.3316 277.861 81.4111 278.361C80.4907 278.855 79.3572 279.102 78.0106 279.102H73.6725V276.503H77.5844C78.3685 276.503 79.0106 276.366 79.5106 276.094C80.0106 275.821 80.3799 275.446 80.6185 274.969C80.8628 274.491 80.985 273.943 80.985 273.324C80.985 272.705 80.8628 272.159 80.6185 271.688C80.3799 271.216 80.0077 270.849 79.502 270.588C79.002 270.321 78.3572 270.188 77.5674 270.188H74.6697V285H71.5077ZM90.3493 285.264C89.5198 285.264 88.7726 285.116 88.1079 284.821C87.4488 284.52 86.926 284.077 86.5397 283.491C86.159 282.906 85.9687 282.185 85.9687 281.327C85.9687 280.588 86.105 279.977 86.3778 279.494C86.6505 279.011 87.0226 278.625 87.4942 278.335C87.9658 278.045 88.4971 277.827 89.088 277.679C89.6846 277.526 90.301 277.415 90.9374 277.347C91.7045 277.267 92.3266 277.196 92.8039 277.134C93.2812 277.065 93.6278 276.963 93.8437 276.827C94.0653 276.685 94.176 276.466 94.176 276.17V276.119C94.176 275.477 93.9857 274.98 93.605 274.628C93.2243 274.276 92.676 274.099 91.9601 274.099C91.2045 274.099 90.605 274.264 90.1618 274.594C89.7243 274.923 89.4289 275.312 89.2755 275.761L86.3948 275.352C86.6221 274.557 86.9971 273.892 87.5198 273.358C88.0425 272.818 88.6817 272.415 89.4374 272.148C90.1931 271.875 91.0283 271.739 91.9431 271.739C92.5738 271.739 93.2016 271.812 93.8266 271.96C94.4516 272.108 95.0226 272.352 95.5397 272.693C96.0567 273.028 96.4715 273.486 96.784 274.065C97.1022 274.645 97.2613 275.369 97.2613 276.239V285H94.2954V283.202H94.1931C94.0056 283.565 93.7414 283.906 93.4005 284.224C93.0653 284.537 92.642 284.79 92.1306 284.983C91.6249 285.17 91.0312 285.264 90.3493 285.264ZM91.1505 282.997C91.7698 282.997 92.3067 282.875 92.7613 282.631C93.2158 282.381 93.5653 282.051 93.8096 281.642C94.0596 281.233 94.1846 280.787 94.1846 280.304V278.761C94.088 278.841 93.9232 278.915 93.6903 278.983C93.463 279.051 93.2073 279.111 92.9232 279.162C92.6391 279.213 92.3579 279.259 92.0795 279.298C91.801 279.338 91.5596 279.372 91.355 279.401C90.8948 279.463 90.4829 279.565 90.1192 279.707C89.7556 279.849 89.4687 280.048 89.2584 280.304C89.0482 280.554 88.9431 280.878 88.9431 281.276C88.9431 281.844 89.1505 282.273 89.5653 282.562C89.98 282.852 90.5084 282.997 91.1505 282.997ZM110.71 275.369L107.898 275.676C107.818 275.392 107.679 275.125 107.48 274.875C107.287 274.625 107.025 274.423 106.696 274.27C106.366 274.116 105.963 274.04 105.486 274.04C104.844 274.04 104.304 274.179 103.866 274.457C103.435 274.736 103.222 275.097 103.227 275.54C103.222 275.92 103.361 276.23 103.645 276.469C103.935 276.707 104.412 276.903 105.077 277.057L107.31 277.534C108.548 277.801 109.469 278.224 110.071 278.804C110.679 279.384 110.986 280.142 110.991 281.08C110.986 281.903 110.744 282.631 110.267 283.261C109.795 283.886 109.139 284.375 108.298 284.727C107.457 285.08 106.491 285.256 105.4 285.256C103.798 285.256 102.508 284.92 101.531 284.25C100.554 283.574 99.9715 282.634 99.784 281.429L102.793 281.139C102.929 281.73 103.219 282.176 103.662 282.477C104.105 282.778 104.682 282.929 105.392 282.929C106.125 282.929 106.713 282.778 107.156 282.477C107.605 282.176 107.829 281.804 107.829 281.361C107.829 280.986 107.685 280.676 107.395 280.432C107.111 280.187 106.668 280 106.065 279.869L103.832 279.401C102.577 279.139 101.648 278.699 101.045 278.08C100.443 277.455 100.145 276.665 100.15 275.71C100.145 274.903 100.364 274.205 100.807 273.614C101.256 273.017 101.878 272.557 102.673 272.233C103.474 271.903 104.398 271.739 105.443 271.739C106.977 271.739 108.185 272.065 109.065 272.719C109.952 273.372 110.5 274.256 110.71 275.369ZM123.882 275.369L121.07 275.676C120.99 275.392 120.851 275.125 120.652 274.875C120.459 274.625 120.197 274.423 119.868 274.27C119.538 274.116 119.135 274.04 118.658 274.04C118.016 274.04 117.476 274.179 117.038 274.457C116.606 274.736 116.393 275.097 116.399 275.54C116.393 275.92 116.533 276.23 116.817 276.469C117.106 276.707 117.584 276.903 118.248 277.057L120.481 277.534C121.72 277.801 122.641 278.224 123.243 278.804C123.851 279.384 124.158 280.142 124.163 281.08C124.158 281.903 123.916 282.631 123.439 283.261C122.967 283.886 122.311 284.375 121.47 284.727C120.629 285.08 119.663 285.256 118.572 285.256C116.97 285.256 115.68 284.92 114.703 284.25C113.726 283.574 113.143 282.634 112.956 281.429L115.964 281.139C116.101 281.73 116.391 282.176 116.834 282.477C117.277 282.778 117.854 282.929 118.564 282.929C119.297 282.929 119.885 282.778 120.328 282.477C120.777 282.176 121.001 281.804 121.001 281.361C121.001 280.986 120.856 280.676 120.567 280.432C120.283 280.187 119.839 280 119.237 279.869L117.004 279.401C115.748 279.139 114.82 278.699 114.217 278.08C113.615 277.455 113.317 276.665 113.322 275.71C113.317 274.903 113.535 274.205 113.979 273.614C114.427 273.017 115.05 272.557 115.845 272.233C116.646 271.903 117.57 271.739 118.615 271.739C120.149 271.739 121.356 272.065 122.237 272.719C123.123 273.372 123.672 274.256 123.882 275.369ZM129.409 285L125.71 271.909H128.855L131.156 281.114H131.275L133.628 271.909H136.739L139.091 281.062H139.219L141.486 271.909H144.639L140.932 285H137.719L135.264 276.153H135.085L132.631 285H129.409ZM152.128 285.256C150.85 285.256 149.742 284.974 148.805 284.412C147.867 283.849 147.14 283.062 146.623 282.051C146.111 281.04 145.856 279.858 145.856 278.506C145.856 277.153 146.111 275.969 146.623 274.952C147.14 273.935 147.867 273.145 148.805 272.582C149.742 272.02 150.85 271.739 152.128 271.739C153.407 271.739 154.515 272.02 155.452 272.582C156.39 273.145 157.114 273.935 157.626 274.952C158.143 275.969 158.401 277.153 158.401 278.506C158.401 279.858 158.143 281.04 157.626 282.051C157.114 283.062 156.39 283.849 155.452 284.412C154.515 284.974 153.407 285.256 152.128 285.256ZM152.146 282.784C152.839 282.784 153.418 282.594 153.884 282.213C154.35 281.827 154.697 281.31 154.924 280.662C155.157 280.014 155.273 279.293 155.273 278.497C155.273 277.696 155.157 276.972 154.924 276.324C154.697 275.67 154.35 275.151 153.884 274.764C153.418 274.378 152.839 274.185 152.146 274.185C151.435 274.185 150.844 274.378 150.373 274.764C149.907 275.151 149.557 275.67 149.324 276.324C149.097 276.972 148.984 277.696 148.984 278.497C148.984 279.293 149.097 280.014 149.324 280.662C149.557 281.31 149.907 281.827 150.373 282.213C150.844 282.594 151.435 282.784 152.146 282.784ZM161.02 285V271.909H164.011V274.091H164.148C164.386 273.335 164.795 272.753 165.375 272.344C165.96 271.929 166.628 271.722 167.378 271.722C167.548 271.722 167.739 271.73 167.949 271.747C168.165 271.759 168.344 271.778 168.486 271.807V274.645C168.355 274.599 168.148 274.56 167.864 274.526C167.585 274.486 167.315 274.466 167.054 274.466C166.491 274.466 165.986 274.588 165.537 274.832C165.094 275.071 164.744 275.403 164.489 275.83C164.233 276.256 164.105 276.747 164.105 277.304V285H161.02ZM174.854 285.23C173.826 285.23 172.905 284.966 172.093 284.438C171.28 283.909 170.638 283.142 170.167 282.136C169.695 281.131 169.459 279.909 169.459 278.472C169.459 277.017 169.698 275.79 170.175 274.79C170.658 273.784 171.309 273.026 172.127 272.514C172.945 271.997 173.857 271.739 174.863 271.739C175.63 271.739 176.261 271.869 176.755 272.131C177.249 272.386 177.641 272.696 177.931 273.06C178.221 273.418 178.445 273.756 178.604 274.074H178.732V267.545H181.826V285H178.792V282.938H178.604C178.445 283.256 178.215 283.594 177.914 283.952C177.613 284.304 177.215 284.605 176.721 284.855C176.226 285.105 175.604 285.23 174.854 285.23ZM175.715 282.699C176.369 282.699 176.925 282.523 177.386 282.17C177.846 281.812 178.195 281.315 178.434 280.679C178.672 280.043 178.792 279.301 178.792 278.455C178.792 277.608 178.672 276.872 178.434 276.247C178.201 275.622 177.854 275.136 177.394 274.79C176.94 274.443 176.38 274.27 175.715 274.27C175.028 274.27 174.454 274.449 173.994 274.807C173.533 275.165 173.187 275.659 172.954 276.29C172.721 276.92 172.604 277.642 172.604 278.455C172.604 279.273 172.721 280.003 172.954 280.645C173.192 281.281 173.542 281.784 174.002 282.153C174.468 282.517 175.039 282.699 175.715 282.699Z" fill="black" fill-opacity="0.73"/>
<path d="M70.2861 337H539.786" stroke="black" stroke-opacity="0.71" stroke-width="3"/>
<path d="M80.5106 158.545H83.6725V169.949C83.6725 171.199 83.377 172.298 82.7861 173.247C82.2009 174.196 81.377 174.937 80.3145 175.472C79.252 176 78.0106 176.264 76.5901 176.264C75.164 176.264 73.9197 176 72.8572 175.472C71.7947 174.937 70.9708 174.196 70.3856 173.247C69.8003 172.298 69.5077 171.199 69.5077 169.949V158.545H72.6697V169.685C72.6697 170.412 72.8287 171.06 73.1469 171.628C73.4708 172.196 73.9253 172.642 74.5106 172.966C75.0958 173.284 75.789 173.443 76.5901 173.443C77.3912 173.443 78.0844 173.284 78.6697 172.966C79.2606 172.642 79.7151 172.196 80.0333 171.628C80.3515 171.06 80.5106 170.412 80.5106 169.685V158.545ZM97.3195 166.369L94.507 166.676C94.4275 166.392 94.2883 166.125 94.0894 165.875C93.8962 165.625 93.6349 165.423 93.3053 165.27C92.9758 165.116 92.5724 165.04 92.0951 165.04C91.453 165.04 90.9133 165.179 90.4758 165.457C90.0439 165.736 89.8309 166.097 89.8366 166.54C89.8309 166.92 89.9701 167.23 90.2542 167.469C90.5439 167.707 91.0212 167.903 91.686 168.057L93.9189 168.534C95.1576 168.801 96.078 169.224 96.6803 169.804C97.2883 170.384 97.5951 171.142 97.6008 172.08C97.5951 172.903 97.3536 173.631 96.8763 174.261C96.4047 174.886 95.7485 175.375 94.9076 175.727C94.0667 176.08 93.1008 176.256 92.0099 176.256C90.4076 176.256 89.1178 175.92 88.1405 175.25C87.1633 174.574 86.5809 173.634 86.3934 172.429L89.4019 172.139C89.5383 172.73 89.828 173.176 90.2712 173.477C90.7144 173.778 91.2911 173.929 92.0013 173.929C92.7343 173.929 93.3224 173.778 93.7655 173.477C94.2144 173.176 94.4388 172.804 94.4388 172.361C94.4388 171.986 94.2939 171.676 94.0042 171.432C93.7201 171.187 93.2769 171 92.6746 170.869L90.4417 170.401C89.186 170.139 88.257 169.699 87.6547 169.08C87.0525 168.455 86.7542 167.665 86.7599 166.71C86.7542 165.903 86.9729 165.205 87.4161 164.614C87.865 164.017 88.4871 163.557 89.2826 163.233C90.0837 162.903 91.007 162.739 92.0525 162.739C93.5866 162.739 94.7939 163.065 95.6746 163.719C96.561 164.372 97.1093 165.256 97.3195 166.369ZM105.94 176.256C104.628 176.256 103.494 175.983 102.54 175.438C101.591 174.886 100.861 174.108 100.349 173.102C99.838 172.091 99.5823 170.901 99.5823 169.531C99.5823 168.185 99.838 167.003 100.349 165.986C100.866 164.963 101.588 164.168 102.514 163.599C103.44 163.026 104.528 162.739 105.778 162.739C106.585 162.739 107.347 162.869 108.062 163.131C108.784 163.386 109.42 163.784 109.972 164.324C110.528 164.864 110.966 165.551 111.284 166.386C111.602 167.216 111.761 168.205 111.761 169.352V170.298H101.031V168.219H108.804C108.798 167.628 108.67 167.102 108.42 166.642C108.17 166.176 107.821 165.81 107.372 165.543C106.929 165.276 106.412 165.142 105.821 165.142C105.19 165.142 104.636 165.295 104.159 165.602C103.682 165.903 103.31 166.301 103.043 166.795C102.781 167.284 102.648 167.821 102.642 168.406V170.222C102.642 170.983 102.781 171.636 103.06 172.182C103.338 172.722 103.727 173.136 104.227 173.426C104.727 173.71 105.312 173.852 105.983 173.852C106.432 173.852 106.838 173.79 107.202 173.665C107.565 173.534 107.881 173.344 108.148 173.094C108.415 172.844 108.616 172.534 108.753 172.165L111.633 172.489C111.452 173.25 111.105 173.915 110.594 174.483C110.088 175.045 109.44 175.483 108.65 175.795C107.861 176.102 106.957 176.256 105.94 176.256ZM114.371 176V162.909H117.363V165.091H117.499C117.738 164.335 118.147 163.753 118.726 163.344C119.312 162.929 119.979 162.722 120.729 162.722C120.9 162.722 121.09 162.73 121.3 162.747C121.516 162.759 121.695 162.778 121.837 162.807V165.645C121.707 165.599 121.499 165.56 121.215 165.526C120.937 165.486 120.667 165.466 120.405 165.466C119.843 165.466 119.337 165.588 118.888 165.832C118.445 166.071 118.096 166.403 117.84 166.83C117.584 167.256 117.457 167.747 117.457 168.304V176H114.371ZM126.972 168.33V176H123.887V162.909H126.836V165.134H126.989C127.29 164.401 127.771 163.818 128.43 163.386C129.094 162.955 129.915 162.739 130.893 162.739C131.796 162.739 132.583 162.932 133.253 163.318C133.93 163.705 134.452 164.264 134.822 164.997C135.197 165.73 135.381 166.619 135.376 167.665V176H132.29V168.142C132.29 167.267 132.063 166.582 131.609 166.088C131.16 165.594 130.538 165.347 129.742 165.347C129.202 165.347 128.722 165.466 128.302 165.705C127.887 165.937 127.56 166.276 127.322 166.719C127.089 167.162 126.972 167.699 126.972 168.33ZM142.279 176.264C141.449 176.264 140.702 176.116 140.038 175.821C139.378 175.52 138.856 175.077 138.469 174.491C138.089 173.906 137.898 173.185 137.898 172.327C137.898 171.588 138.035 170.977 138.307 170.494C138.58 170.011 138.952 169.625 139.424 169.335C139.896 169.045 140.427 168.827 141.018 168.679C141.614 168.526 142.231 168.415 142.867 168.347C143.634 168.267 144.256 168.196 144.734 168.134C145.211 168.065 145.557 167.963 145.773 167.827C145.995 167.685 146.106 167.466 146.106 167.17V167.119C146.106 166.477 145.915 165.98 145.535 165.628C145.154 165.276 144.606 165.099 143.89 165.099C143.134 165.099 142.535 165.264 142.092 165.594C141.654 165.923 141.359 166.312 141.205 166.761L138.324 166.352C138.552 165.557 138.927 164.892 139.449 164.358C139.972 163.818 140.611 163.415 141.367 163.148C142.123 162.875 142.958 162.739 143.873 162.739C144.503 162.739 145.131 162.812 145.756 162.96C146.381 163.108 146.952 163.352 147.469 163.693C147.986 164.028 148.401 164.486 148.714 165.065C149.032 165.645 149.191 166.369 149.191 167.239V176H146.225V174.202H146.123C145.935 174.565 145.671 174.906 145.33 175.224C144.995 175.537 144.572 175.79 144.06 175.983C143.555 176.17 142.961 176.264 142.279 176.264ZM143.08 173.997C143.699 173.997 144.236 173.875 144.691 173.631C145.146 173.381 145.495 173.051 145.739 172.642C145.989 172.233 146.114 171.787 146.114 171.304V169.761C146.018 169.841 145.853 169.915 145.62 169.983C145.393 170.051 145.137 170.111 144.853 170.162C144.569 170.213 144.288 170.259 144.009 170.298C143.731 170.338 143.489 170.372 143.285 170.401C142.824 170.463 142.413 170.565 142.049 170.707C141.685 170.849 141.398 171.048 141.188 171.304C140.978 171.554 140.873 171.878 140.873 172.276C140.873 172.844 141.08 173.273 141.495 173.562C141.91 173.852 142.438 173.997 143.08 173.997ZM152.293 176V162.909H155.242V165.134H155.396C155.668 164.384 156.12 163.798 156.751 163.378C157.381 162.952 158.134 162.739 159.009 162.739C159.896 162.739 160.643 162.955 161.251 163.386C161.864 163.812 162.296 164.395 162.546 165.134H162.682C162.972 164.406 163.461 163.827 164.148 163.395C164.842 162.957 165.663 162.739 166.611 162.739C167.816 162.739 168.799 163.119 169.56 163.881C170.322 164.642 170.702 165.753 170.702 167.213V176H167.609V167.69C167.609 166.878 167.393 166.284 166.961 165.909C166.529 165.528 166.001 165.338 165.376 165.338C164.631 165.338 164.049 165.571 163.628 166.037C163.214 166.497 163.006 167.097 163.006 167.835V176H159.981V167.562C159.981 166.886 159.776 166.347 159.367 165.943C158.964 165.54 158.435 165.338 157.782 165.338C157.339 165.338 156.935 165.452 156.572 165.679C156.208 165.901 155.918 166.216 155.702 166.625C155.486 167.028 155.378 167.5 155.378 168.04V176H152.293ZM179.628 176.256C178.315 176.256 177.182 175.983 176.227 175.438C175.278 174.886 174.548 174.108 174.037 173.102C173.525 172.091 173.27 170.901 173.27 169.531C173.27 168.185 173.525 167.003 174.037 165.986C174.554 164.963 175.275 164.168 176.202 163.599C177.128 163.026 178.216 162.739 179.466 162.739C180.273 162.739 181.034 162.869 181.75 163.131C182.472 163.386 183.108 163.784 183.659 164.324C184.216 164.864 184.653 165.551 184.972 166.386C185.29 167.216 185.449 168.205 185.449 169.352V170.298H174.719V168.219H182.491C182.486 167.628 182.358 167.102 182.108 166.642C181.858 166.176 181.508 165.81 181.06 165.543C180.616 165.276 180.099 165.142 179.508 165.142C178.878 165.142 178.324 165.295 177.847 165.602C177.369 165.903 176.997 166.301 176.73 166.795C176.469 167.284 176.335 167.821 176.329 168.406V170.222C176.329 170.983 176.469 171.636 176.747 172.182C177.025 172.722 177.415 173.136 177.915 173.426C178.415 173.71 179 173.852 179.67 173.852C180.119 173.852 180.525 173.79 180.889 173.665C181.253 173.534 181.568 173.344 181.835 173.094C182.102 172.844 182.304 172.534 182.44 172.165L185.321 172.489C185.139 173.25 184.793 173.915 184.281 174.483C183.775 175.045 183.128 175.483 182.338 175.795C181.548 176.102 180.645 176.256 179.628 176.256Z" fill="black" fill-opacity="0.73"/>
<path d="M70.2861 237H539.786" stroke="black" stroke-opacity="0.71" stroke-width="3"/>
<path d="M257.153 71V39.7273H264.712V64.8615H277.722V71H257.153ZM292.583 71.4428C290.119 71.4428 288.002 70.9389 286.231 69.9311C284.47 68.9131 283.11 67.4981 282.154 65.6861C281.207 63.8639 280.733 61.7515 280.733 59.3491C280.733 56.9364 281.207 54.8241 282.154 53.0121C283.11 51.1899 284.47 49.7749 286.231 48.767C288.002 47.7491 290.119 47.2401 292.583 47.2401C295.046 47.2401 297.159 47.7491 298.92 48.767C300.691 49.7749 302.05 51.1899 302.997 53.0121C303.954 54.8241 304.432 56.9364 304.432 59.3491C304.432 61.7515 303.954 63.8639 302.997 65.6861C302.05 67.4981 300.691 68.9131 298.92 69.9311C297.159 70.9389 295.046 71.4428 292.583 71.4428ZM292.629 65.8082C293.525 65.8082 294.283 65.5334 294.904 64.9837C295.525 64.4339 295.998 63.6705 296.324 62.6932C296.66 61.7159 296.828 60.5859 296.828 59.3033C296.828 58.0002 296.66 56.8601 296.324 55.8828C295.998 54.9055 295.525 54.142 294.904 53.5923C294.283 53.0426 293.525 52.7678 292.629 52.7678C291.702 52.7678 290.919 53.0426 290.277 53.5923C289.646 54.142 289.162 54.9055 288.827 55.8828C288.501 56.8601 288.338 58.0002 288.338 59.3033C288.338 60.5859 288.501 61.7159 288.827 62.6932C289.162 63.6705 289.646 64.4339 290.277 64.9837C290.919 65.5334 291.702 65.8082 292.629 65.8082ZM319.191 80.2841C316.961 80.2841 315.053 79.9736 313.464 79.3526C311.876 78.7317 310.629 77.8816 309.723 76.8026C308.817 75.7235 308.273 74.5019 308.089 73.1378L315.159 72.7408C315.292 73.2192 315.536 73.6366 315.892 73.9929C316.259 74.3492 316.732 74.6241 317.312 74.8175C317.903 75.0109 318.595 75.1076 319.389 75.1076C320.641 75.1076 321.675 74.8022 322.489 74.1914C323.314 73.5908 323.726 72.5372 323.726 71.0305V66.9077H323.466C323.171 67.6304 322.723 68.2769 322.123 68.8469C321.522 69.417 320.774 69.8649 319.878 70.1907C318.992 70.5165 317.974 70.6793 316.824 70.6793C315.114 70.6793 313.546 70.2823 312.121 69.4883C310.706 68.6841 309.571 67.4421 308.716 65.7624C307.871 64.0726 307.448 61.8991 307.448 59.2422C307.448 56.5038 307.886 54.2489 308.761 52.4776C309.637 50.6961 310.782 49.3778 312.197 48.5227C313.622 47.6676 315.154 47.2401 316.793 47.2401C318.025 47.2401 319.079 47.4538 319.954 47.8814C320.84 48.2988 321.568 48.8383 322.138 49.5C322.708 50.1617 323.141 50.8488 323.436 51.5614H323.65V47.5455H331.086V71.0916C331.086 73.0767 330.587 74.7513 329.589 76.1154C328.592 77.4795 327.197 78.5128 325.406 79.2152C323.614 79.9278 321.542 80.2841 319.191 80.2841ZM319.42 65.2433C320.326 65.2433 321.099 65.004 321.741 64.5256C322.382 64.0471 322.876 63.36 323.222 62.4641C323.568 61.5683 323.741 60.4943 323.741 59.2422C323.741 57.9697 323.568 56.8754 323.222 55.9592C322.886 55.0328 322.392 54.3202 321.741 53.8214C321.099 53.3226 320.326 53.0732 319.42 53.0732C318.493 53.0732 317.71 53.3277 317.068 53.8366C316.427 54.3456 315.938 55.0633 315.602 55.9897C315.277 56.9059 315.114 57.9901 315.114 59.2422C315.114 60.4943 315.282 61.5683 315.618 62.4641C315.953 63.36 316.437 64.0471 317.068 64.5256C317.71 65.004 318.493 65.2433 319.42 65.2433ZM335.846 71V47.5455H343.313V71H335.846ZM339.587 44.8121C338.539 44.8121 337.638 44.466 336.885 43.7738C336.131 43.0714 335.755 42.2264 335.755 41.239C335.755 40.2617 336.131 39.427 336.885 38.7347C337.638 38.0323 338.539 37.6811 339.587 37.6811C340.646 37.6811 341.547 38.0323 342.29 38.7347C343.044 39.427 343.42 40.2617 343.42 41.239C343.42 42.2264 343.044 43.0714 342.29 43.7738C341.547 44.466 340.646 44.8121 339.587 44.8121ZM355.533 57.6236V71H348.066V47.5455H355.167V51.8516H355.426C355.945 50.4162 356.831 49.2913 358.083 48.4769C359.335 47.6523 360.827 47.2401 362.557 47.2401C364.206 47.2401 365.637 47.6116 366.848 48.3548C368.07 49.0877 369.016 50.1159 369.688 51.4393C370.37 52.7525 370.706 54.2897 370.696 56.0508V71H363.229V57.5167C363.239 56.2137 362.908 55.1957 362.237 54.4627C361.575 53.7298 360.654 53.3633 359.473 53.3633C358.689 53.3633 357.997 53.5363 357.396 53.8825C356.806 54.2184 356.347 54.7019 356.022 55.3331C355.706 55.9643 355.543 56.7277 355.533 57.6236Z" fill="#FFF9F9"/>
<path d="M410.026 360V348.364H417.003V349.614H411.435V353.545H416.48V354.795H411.435V360H410.026ZM422.139 360.182C421.352 360.182 420.66 359.994 420.066 359.619C419.475 359.244 419.013 358.72 418.679 358.045C418.35 357.371 418.185 356.583 418.185 355.682C418.185 354.773 418.35 353.979 418.679 353.301C419.013 352.623 419.475 352.097 420.066 351.722C420.66 351.347 421.352 351.159 422.139 351.159C422.927 351.159 423.617 351.347 424.208 351.722C424.802 352.097 425.264 352.623 425.594 353.301C425.927 353.979 426.094 354.773 426.094 355.682C426.094 356.583 425.927 357.371 425.594 358.045C425.264 358.72 424.802 359.244 424.208 359.619C423.617 359.994 422.927 360.182 422.139 360.182ZM422.139 358.977C422.738 358.977 423.23 358.824 423.617 358.517C424.003 358.21 424.289 357.807 424.475 357.307C424.66 356.807 424.753 356.265 424.753 355.682C424.753 355.098 424.66 354.555 424.475 354.051C424.289 353.547 424.003 353.14 423.617 352.83C423.23 352.519 422.738 352.364 422.139 352.364C421.541 352.364 421.049 352.519 420.662 352.83C420.276 353.14 419.99 353.547 419.804 354.051C419.619 354.555 419.526 355.098 419.526 355.682C419.526 356.265 419.619 356.807 419.804 357.307C419.99 357.807 420.276 358.21 420.662 358.517C421.049 358.824 421.541 358.977 422.139 358.977ZM428.141 360V351.273H429.436V352.591H429.527C429.686 352.159 429.974 351.809 430.391 351.54C430.808 351.271 431.277 351.136 431.8 351.136C431.898 351.136 432.022 351.138 432.169 351.142C432.317 351.146 432.429 351.152 432.504 351.159V352.523C432.459 352.511 432.355 352.494 432.192 352.472C432.033 352.445 431.864 352.432 431.686 352.432C431.262 352.432 430.883 352.521 430.55 352.699C430.22 352.873 429.959 353.116 429.766 353.426C429.576 353.733 429.482 354.083 429.482 354.477V360H428.141ZM437.351 363.455C436.703 363.455 436.147 363.371 435.681 363.205C435.215 363.042 434.826 362.826 434.516 362.557C434.209 362.292 433.965 362.008 433.783 361.705L434.851 360.955C434.972 361.114 435.126 361.295 435.311 361.5C435.497 361.708 435.751 361.888 436.073 362.04C436.398 362.195 436.825 362.273 437.351 362.273C438.056 362.273 438.637 362.102 439.095 361.761C439.554 361.42 439.783 360.886 439.783 360.159V358.386H439.669C439.571 358.545 439.431 358.742 439.249 358.977C439.071 359.208 438.813 359.415 438.476 359.597C438.143 359.775 437.692 359.864 437.124 359.864C436.419 359.864 435.787 359.697 435.226 359.364C434.669 359.03 434.228 358.545 433.902 357.909C433.58 357.273 433.419 356.5 433.419 355.591C433.419 354.697 433.576 353.919 433.891 353.256C434.205 352.589 434.643 352.074 435.203 351.71C435.764 351.343 436.412 351.159 437.147 351.159C437.715 351.159 438.165 351.254 438.499 351.443C438.836 351.629 439.093 351.841 439.272 352.08C439.453 352.314 439.593 352.508 439.692 352.659H439.828V351.273H441.124V360.25C441.124 361 440.953 361.61 440.612 362.08C440.275 362.553 439.821 362.9 439.249 363.119C438.681 363.343 438.048 363.455 437.351 363.455ZM437.306 358.659C437.843 358.659 438.298 358.536 438.669 358.29C439.04 358.044 439.323 357.689 439.516 357.227C439.709 356.765 439.806 356.212 439.806 355.568C439.806 354.939 439.711 354.384 439.522 353.903C439.332 353.422 439.052 353.045 438.681 352.773C438.309 352.5 437.851 352.364 437.306 352.364C436.737 352.364 436.264 352.508 435.885 352.795C435.51 353.083 435.228 353.47 435.039 353.955C434.853 354.439 434.76 354.977 434.76 355.568C434.76 356.174 434.855 356.71 435.044 357.176C435.237 357.638 435.522 358.002 435.897 358.267C436.275 358.528 436.745 358.659 437.306 358.659ZM447.124 360.182C446.336 360.182 445.645 359.994 445.05 359.619C444.459 359.244 443.997 358.72 443.664 358.045C443.334 357.371 443.169 356.583 443.169 355.682C443.169 354.773 443.334 353.979 443.664 353.301C443.997 352.623 444.459 352.097 445.05 351.722C445.645 351.347 446.336 351.159 447.124 351.159C447.912 351.159 448.601 351.347 449.192 351.722C449.787 352.097 450.249 352.623 450.578 353.301C450.912 353.979 451.078 354.773 451.078 355.682C451.078 356.583 450.912 357.371 450.578 358.045C450.249 358.72 449.787 359.244 449.192 359.619C448.601 359.994 447.912 360.182 447.124 360.182ZM447.124 358.977C447.722 358.977 448.215 358.824 448.601 358.517C448.987 358.21 449.273 357.807 449.459 357.307C449.645 356.807 449.737 356.265 449.737 355.682C449.737 355.098 449.645 354.555 449.459 354.051C449.273 353.547 448.987 353.14 448.601 352.83C448.215 352.519 447.722 352.364 447.124 352.364C446.525 352.364 446.033 352.519 445.647 352.83C445.26 353.14 444.974 353.547 444.789 354.051C444.603 354.555 444.51 355.098 444.51 355.682C444.51 356.265 444.603 356.807 444.789 357.307C444.974 357.807 445.26 358.21 445.647 358.517C446.033 358.824 446.525 358.977 447.124 358.977ZM456.921 351.273V352.409H452.398V351.273H456.921ZM453.716 349.182H455.057V357.5C455.057 357.879 455.112 358.163 455.222 358.352C455.335 358.538 455.479 358.663 455.654 358.727C455.832 358.788 456.019 358.818 456.216 358.818C456.364 358.818 456.485 358.811 456.58 358.795C456.674 358.777 456.75 358.761 456.807 358.75L457.08 359.955C456.989 359.989 456.862 360.023 456.699 360.057C456.536 360.095 456.33 360.114 456.08 360.114C455.701 360.114 455.33 360.032 454.966 359.869C454.606 359.706 454.307 359.458 454.068 359.125C453.834 358.792 453.716 358.371 453.716 357.864V349.182ZM459.307 360V348.364H463.239C464.152 348.364 464.898 348.528 465.477 348.858C466.061 349.184 466.493 349.625 466.773 350.182C467.053 350.739 467.193 351.36 467.193 352.045C467.193 352.731 467.053 353.354 466.773 353.915C466.496 354.475 466.068 354.922 465.489 355.256C464.909 355.585 464.167 355.75 463.262 355.75H460.443V354.5H463.216C463.841 354.5 464.343 354.392 464.722 354.176C465.101 353.96 465.375 353.669 465.546 353.301C465.72 352.93 465.807 352.511 465.807 352.045C465.807 351.58 465.72 351.163 465.546 350.795C465.375 350.428 465.099 350.14 464.716 349.932C464.334 349.72 463.826 349.614 463.193 349.614H460.716V360H459.307ZM471.85 360.205C471.297 360.205 470.795 360.1 470.344 359.892C469.893 359.68 469.535 359.375 469.27 358.977C469.005 358.576 468.872 358.091 468.872 357.523C468.872 357.023 468.971 356.617 469.168 356.307C469.365 355.992 469.628 355.746 469.958 355.568C470.287 355.39 470.651 355.258 471.049 355.17C471.45 355.08 471.853 355.008 472.259 354.955C472.789 354.886 473.219 354.835 473.549 354.801C473.882 354.763 474.124 354.701 474.276 354.614C474.431 354.527 474.509 354.375 474.509 354.159V354.114C474.509 353.553 474.355 353.117 474.049 352.807C473.745 352.496 473.285 352.341 472.668 352.341C472.028 352.341 471.526 352.481 471.162 352.761C470.799 353.042 470.543 353.341 470.395 353.659L469.122 353.205C469.35 352.674 469.653 352.261 470.031 351.966C470.414 351.667 470.831 351.458 471.281 351.341C471.736 351.22 472.183 351.159 472.622 351.159C472.903 351.159 473.225 351.193 473.588 351.261C473.956 351.326 474.31 351.46 474.651 351.665C474.995 351.869 475.281 352.178 475.509 352.591C475.736 353.004 475.85 353.557 475.85 354.25V360H474.509V358.818H474.441C474.35 359.008 474.198 359.21 473.986 359.426C473.774 359.642 473.492 359.826 473.139 359.977C472.787 360.129 472.357 360.205 471.85 360.205ZM472.054 359C472.585 359 473.031 358.896 473.395 358.688C473.763 358.479 474.039 358.21 474.225 357.881C474.414 357.551 474.509 357.205 474.509 356.841V355.614C474.452 355.682 474.327 355.744 474.134 355.801C473.944 355.854 473.725 355.902 473.475 355.943C473.228 355.981 472.988 356.015 472.753 356.045C472.522 356.072 472.335 356.095 472.191 356.114C471.842 356.159 471.516 356.233 471.213 356.335C470.914 356.434 470.672 356.583 470.486 356.784C470.304 356.981 470.213 357.25 470.213 357.591C470.213 358.057 470.386 358.409 470.73 358.648C471.079 358.883 471.52 359 472.054 359ZM484.479 353.227L483.274 353.568C483.199 353.367 483.087 353.172 482.939 352.983C482.795 352.79 482.598 352.631 482.348 352.506C482.098 352.381 481.778 352.318 481.388 352.318C480.854 352.318 480.409 352.441 480.053 352.688C479.701 352.93 479.524 353.239 479.524 353.614C479.524 353.947 479.646 354.21 479.888 354.403C480.13 354.597 480.509 354.758 481.024 354.886L482.32 355.205C483.1 355.394 483.682 355.684 484.064 356.074C484.447 356.46 484.638 356.958 484.638 357.568C484.638 358.068 484.494 358.515 484.206 358.909C483.922 359.303 483.524 359.614 483.013 359.841C482.502 360.068 481.907 360.182 481.229 360.182C480.339 360.182 479.602 359.989 479.019 359.602C478.435 359.216 478.066 358.652 477.911 357.909L479.183 357.591C479.305 358.061 479.534 358.413 479.871 358.648C480.212 358.883 480.657 359 481.206 359C481.831 359 482.327 358.867 482.695 358.602C483.066 358.333 483.252 358.011 483.252 357.636C483.252 357.333 483.146 357.08 482.933 356.875C482.721 356.667 482.396 356.511 481.956 356.409L480.502 356.068C479.702 355.879 479.115 355.585 478.74 355.188C478.369 354.786 478.183 354.284 478.183 353.682C478.183 353.189 478.322 352.754 478.598 352.375C478.879 351.996 479.259 351.699 479.74 351.483C480.225 351.267 480.774 351.159 481.388 351.159C482.252 351.159 482.93 351.348 483.422 351.727C483.918 352.106 484.271 352.606 484.479 353.227ZM492.838 353.227L491.634 353.568C491.558 353.367 491.446 353.172 491.299 352.983C491.155 352.79 490.958 352.631 490.708 352.506C490.458 352.381 490.138 352.318 489.747 352.318C489.213 352.318 488.768 352.441 488.412 352.688C488.06 352.93 487.884 353.239 487.884 353.614C487.884 353.947 488.005 354.21 488.247 354.403C488.49 354.597 488.869 354.758 489.384 354.886L490.679 355.205C491.46 355.394 492.041 355.684 492.424 356.074C492.806 356.46 492.997 356.958 492.997 357.568C492.997 358.068 492.853 358.515 492.566 358.909C492.281 359.303 491.884 359.614 491.372 359.841C490.861 360.068 490.266 360.182 489.588 360.182C488.698 360.182 487.961 359.989 487.378 359.602C486.795 359.216 486.425 358.652 486.27 357.909L487.543 357.591C487.664 358.061 487.893 358.413 488.23 358.648C488.571 358.883 489.016 359 489.566 359C490.191 359 490.687 358.867 491.054 358.602C491.425 358.333 491.611 358.011 491.611 357.636C491.611 357.333 491.505 357.08 491.293 356.875C491.081 356.667 490.755 356.511 490.316 356.409L488.861 356.068C488.062 355.879 487.475 355.585 487.1 355.188C486.728 354.786 486.543 354.284 486.543 353.682C486.543 353.189 486.681 352.754 486.958 352.375C487.238 351.996 487.619 351.699 488.1 351.483C488.585 351.267 489.134 351.159 489.747 351.159C490.611 351.159 491.289 351.348 491.781 351.727C492.278 352.106 492.63 352.606 492.838 353.227ZM496.993 360L494.334 351.273H495.743L497.629 357.955H497.72L499.584 351.273H501.016L502.857 357.932H502.948L504.834 351.273H506.243L503.584 360H502.266L500.357 353.295H500.22L498.311 360H496.993ZM511.264 360.182C510.477 360.182 509.785 359.994 509.191 359.619C508.6 359.244 508.138 358.72 507.804 358.045C507.475 357.371 507.31 356.583 507.31 355.682C507.31 354.773 507.475 353.979 507.804 353.301C508.138 352.623 508.6 352.097 509.191 351.722C509.785 351.347 510.477 351.159 511.264 351.159C512.052 351.159 512.742 351.347 513.333 351.722C513.927 352.097 514.389 352.623 514.719 353.301C515.052 353.979 515.219 354.773 515.219 355.682C515.219 356.583 515.052 357.371 514.719 358.045C514.389 358.72 513.927 359.244 513.333 359.619C512.742 359.994 512.052 360.182 511.264 360.182ZM511.264 358.977C511.863 358.977 512.355 358.824 512.742 358.517C513.128 358.21 513.414 357.807 513.6 357.307C513.785 356.807 513.878 356.265 513.878 355.682C513.878 355.098 513.785 354.555 513.6 354.051C513.414 353.547 513.128 353.14 512.742 352.83C512.355 352.519 511.863 352.364 511.264 352.364C510.666 352.364 510.174 352.519 509.787 352.83C509.401 353.14 509.115 353.547 508.929 354.051C508.744 354.555 508.651 355.098 508.651 355.682C508.651 356.265 508.744 356.807 508.929 357.307C509.115 357.807 509.401 358.21 509.787 358.517C510.174 358.824 510.666 358.977 511.264 358.977ZM517.266 360V351.273H518.561V352.591H518.652C518.811 352.159 519.099 351.809 519.516 351.54C519.933 351.271 520.402 351.136 520.925 351.136C521.023 351.136 521.147 351.138 521.294 351.142C521.442 351.146 521.554 351.152 521.629 351.159V352.523C521.584 352.511 521.48 352.494 521.317 352.472C521.158 352.445 520.989 352.432 520.811 352.432C520.387 352.432 520.008 352.521 519.675 352.699C519.345 352.873 519.084 353.116 518.891 353.426C518.701 353.733 518.607 354.083 518.607 354.477V360H517.266ZM526.249 360.182C525.522 360.182 524.879 359.998 524.323 359.631C523.766 359.259 523.33 358.737 523.016 358.062C522.701 357.384 522.544 356.583 522.544 355.659C522.544 354.742 522.701 353.947 523.016 353.273C523.33 352.598 523.768 352.078 524.328 351.71C524.889 351.343 525.537 351.159 526.272 351.159C526.84 351.159 527.289 351.254 527.618 351.443C527.951 351.629 528.205 351.841 528.379 352.08C528.558 352.314 528.696 352.508 528.794 352.659H528.908V348.364H530.249V360H528.953V358.659H528.794C528.696 358.818 528.556 359.019 528.374 359.261C528.192 359.5 527.933 359.714 527.595 359.903C527.258 360.089 526.809 360.182 526.249 360.182ZM526.431 358.977C526.968 358.977 527.423 358.837 527.794 358.557C528.165 358.273 528.448 357.881 528.641 357.381C528.834 356.877 528.931 356.295 528.931 355.636C528.931 354.985 528.836 354.415 528.647 353.926C528.457 353.434 528.177 353.051 527.806 352.778C527.434 352.502 526.976 352.364 526.431 352.364C525.862 352.364 525.389 352.509 525.01 352.801C524.635 353.089 524.353 353.481 524.164 353.977C523.978 354.47 523.885 355.023 523.885 355.636C523.885 356.258 523.98 356.822 524.169 357.33C524.362 357.833 524.647 358.235 525.022 358.534C525.4 358.83 525.87 358.977 526.431 358.977ZM534.641 356.727V356.659C534.648 355.936 534.724 355.36 534.868 354.932C535.012 354.504 535.217 354.157 535.482 353.892C535.747 353.627 536.065 353.383 536.436 353.159C536.66 353.023 536.861 352.862 537.039 352.676C537.217 352.487 537.357 352.269 537.459 352.023C537.565 351.777 537.618 351.504 537.618 351.205C537.618 350.833 537.531 350.511 537.357 350.239C537.183 349.966 536.95 349.756 536.658 349.608C536.366 349.46 536.042 349.386 535.686 349.386C535.376 349.386 535.076 349.451 534.789 349.58C534.501 349.708 534.26 349.911 534.067 350.188C533.874 350.464 533.762 350.826 533.732 351.273H532.3C532.33 350.629 532.497 350.078 532.8 349.619C533.107 349.161 533.51 348.811 534.01 348.568C534.514 348.326 535.073 348.205 535.686 348.205C536.353 348.205 536.933 348.337 537.425 348.602C537.921 348.867 538.304 349.231 538.573 349.693C538.845 350.155 538.982 350.682 538.982 351.273C538.982 351.689 538.917 352.066 538.789 352.403C538.664 352.741 538.482 353.042 538.243 353.307C538.008 353.572 537.724 353.807 537.391 354.011C537.058 354.22 536.79 354.439 536.59 354.67C536.389 354.898 536.243 355.169 536.152 355.483C536.061 355.797 536.012 356.189 536.004 356.659V356.727H534.641ZM535.368 360.091C535.088 360.091 534.847 359.991 534.647 359.79C534.446 359.589 534.345 359.348 534.345 359.068C534.345 358.788 534.446 358.547 534.647 358.347C534.847 358.146 535.088 358.045 535.368 358.045C535.648 358.045 535.889 358.146 536.09 358.347C536.29 358.547 536.391 358.788 536.391 359.068C536.391 359.254 536.343 359.424 536.249 359.58C536.158 359.735 536.035 359.86 535.879 359.955C535.728 360.045 535.558 360.091 535.368 360.091Z" fill="#454545"/>
</g>
<defs>
<filter id="filter0_d_498_27" x="0" y="0" width="606" height="565" filterUnits="userSpaceOnUse" color-interpolation-filters="sRGB">
<feFlood flood-opacity="0" result="BackgroundImageFix"/>
<feColorMatrix in="SourceAlpha" type="matrix" values="0 0 0 0 0 0 0 0 0 0 0 0 0 0 0 0 0 0 127 0" result="hardAlpha"/>
<feOffset dy="8"/>
<feGaussianBlur stdDeviation="4"/>
<feComposite in2="hardAlpha" operator="out"/>
<feColorMatrix type="matrix" values="0 0 0 0 0 0 0 0 0 0 0 0 0 0 0 0 0 0 0.25 0"/>
<feBlend mode="normal" in2="BackgroundImageFix" result="effect1_dropShadow_498_27"/>
<feBlend mode="normal" in="SourceGraphic" in2="effect1_dropShadow_498_27" result="shape"/>
</filter>
<filter id="filter1_d_498_27" x="63.6167" y="378" width="480" height="66" filterUnits="userSpaceOnUse" color-interpolation-filters="sRGB">
<feFlood flood-opacity="0" result="BackgroundImageFix"/>
<feColorMatrix in="SourceAlpha" type="matrix" values="0 0 0 0 0 0 0 0 0 0 0 0 0 0 0 0 0 0 127 0" result="hardAlpha"/>
<feOffset dy="4"/>
<feGaussianBlur stdDeviation="2"/>
<feComposite in2="hardAlpha" operator="out"/>
<feColorMatrix type="matrix" values="0 0 0 0 0 0 0 0 0 0 0 0 0 0 0 0 0 0 0.15 0"/>
<feBlend mode="normal" in2="BackgroundImageFix" result="effect1_dropShadow_498_27"/>
<feBlend mode="normal" in="SourceGraphic" in2="effect1_dropShadow_498_27" result="shape"/>
</filter>
</defs>
</svg>
